<svg xmlns="http://www.w3.org/2000/svg" width="1440" height="700" viewBox="0 0 1440 700" fill="none">
  <g opacity="0.15">
    <path d="M790.686 1142.97L765.939 1118.21L790.686 1093.46L815.434 1118.21L790.686 1142.97ZM774.137 1118.21L790.686 1134.77L807.236 1118.21L790.686 1101.66L774.137 1118.21Z" fill="#C04365"/>
    <path d="M1367.86 1133.32L1343.11 1108.57L1367.86 1083.81L1392.61 1108.57L1367.86 1133.32ZM1351.31 1108.57L1367.86 1125.12L1384.41 1108.57L1367.86 1092.01L1351.31 1108.57Z" fill="#2CA28C"/>
    <path d="M1176.5 1338.32L1151.75 1313.56L1176.5 1288.81L1201.24 1313.56L1176.5 1338.32ZM1159.95 1313.56L1176.5 1330.12L1193.05 1313.56L1176.5 1297.01L1159.95 1313.56Z" fill="#EEE3D1"/>
    <path d="M988.776 1130.69L964.028 1105.94L988.776 1081.18L1013.52 1105.94L988.776 1130.69ZM972.226 1105.94L988.776 1122.49L1005.33 1105.94L988.776 1089.38L972.226 1105.94Z" fill="#EEE3D1"/>
    <path d="M962.472 1381.51L937.725 1356.76L962.472 1332L987.219 1356.76L962.472 1381.51ZM945.922 1356.76L962.472 1373.31L979.022 1356.76L962.472 1340.2L945.922 1356.76Z" fill="#FE926B"/>
    <path d="M796.977 1305.1H770.432C768.569 1305.1 767.035 1302.89 767.035 1300.17C767.035 1297.45 768.547 1295.24 770.432 1295.24H796.977C798.84 1295.24 800.375 1297.45 800.375 1300.17C800.375 1302.89 798.862 1305.1 796.977 1305.1Z" fill="#FE926B"/>
    <path d="M1385.31 1202.49H1358.76C1356.9 1202.49 1355.36 1200.28 1355.36 1197.56C1355.36 1194.84 1356.88 1192.63 1358.76 1192.63H1385.31C1387.17 1192.63 1388.7 1194.84 1388.7 1197.56C1388.7 1200.28 1387.19 1202.49 1385.31 1202.49Z" fill="#FE926B"/>
    <path d="M923.235 1218.28H896.691C894.827 1218.28 893.293 1216.06 893.293 1213.35C893.293 1210.63 894.805 1208.41 896.691 1208.41H923.235C925.099 1208.41 926.633 1210.63 926.633 1213.35C926.633 1216.06 925.121 1218.28 923.235 1218.28Z" fill="#C04365"/>
    <path d="M1260.8 1130.58H1234.26C1232.39 1130.58 1230.86 1128.37 1230.86 1125.65C1230.86 1122.93 1232.37 1120.71 1234.26 1120.71H1260.8C1262.66 1120.71 1264.2 1122.93 1264.2 1125.65C1264.2 1128.37 1262.69 1130.58 1260.8 1130.58Z" fill="#2CA28C"/>
    <path d="M1088.82 1201.51C1091.72 1201.51 1094.08 1199.15 1094.08 1196.24C1094.08 1193.34 1091.72 1190.98 1088.82 1190.98C1085.91 1190.98 1083.56 1193.34 1083.56 1196.24C1083.56 1199.15 1085.91 1201.51 1088.82 1201.51Z" fill="#EEE3D1"/>
    <path d="M1103.72 1201.51C1106.63 1201.51 1108.98 1199.15 1108.98 1196.24C1108.98 1193.34 1106.63 1190.98 1103.72 1190.98C1100.82 1190.98 1098.46 1193.34 1098.46 1196.24C1098.46 1199.15 1100.82 1201.51 1103.72 1201.51Z" fill="#FE926B"/>
    <path d="M1117.75 1201.51C1120.66 1201.51 1123.01 1199.15 1123.01 1196.24C1123.01 1193.34 1120.66 1190.98 1117.75 1190.98C1114.85 1190.98 1112.49 1193.34 1112.49 1196.24C1112.49 1199.15 1114.85 1201.51 1117.75 1201.51Z" fill="#C04365"/>
    <path d="M1327.31 1321.65C1330.21 1321.65 1332.57 1319.3 1332.57 1316.39C1332.57 1313.49 1330.21 1311.13 1327.31 1311.13C1324.4 1311.13 1322.05 1313.49 1322.05 1316.39C1322.05 1319.3 1324.4 1321.65 1327.31 1321.65Z" fill="#EEE3D1"/>
    <path d="M1342.21 1321.65C1345.12 1321.65 1347.47 1319.3 1347.47 1316.39C1347.47 1313.49 1345.12 1311.13 1342.21 1311.13C1339.31 1311.13 1336.95 1313.49 1336.95 1316.39C1336.95 1319.3 1339.31 1321.65 1342.21 1321.65Z" fill="#FE926B"/>
    <path d="M1356.24 1321.65C1359.15 1321.65 1361.5 1319.3 1361.5 1316.39C1361.5 1313.49 1359.15 1311.13 1356.24 1311.13C1353.33 1311.13 1350.98 1313.49 1350.98 1316.39C1350.98 1319.3 1353.33 1321.65 1356.24 1321.65Z" fill="#C04365"/>
    <path d="M748.622 1221.68C751.527 1221.68 753.883 1219.32 753.883 1216.42C753.883 1213.51 751.527 1211.15 748.622 1211.15C745.717 1211.15 743.361 1213.51 743.361 1216.42C743.361 1219.32 745.717 1221.68 748.622 1221.68Z" fill="#EEE3D1"/>
    <path d="M763.528 1221.68C766.433 1221.68 768.788 1219.32 768.788 1216.42C768.788 1213.51 766.433 1211.15 763.528 1211.15C760.622 1211.15 758.267 1213.51 758.267 1216.42C758.267 1219.32 760.622 1221.68 763.528 1221.68Z" fill="#FE926B"/>
    <path d="M777.556 1221.68C780.462 1221.68 782.817 1219.32 782.817 1216.42C782.817 1213.51 780.462 1211.15 777.556 1211.15C774.651 1211.15 772.295 1213.51 772.295 1216.42C772.295 1219.32 774.651 1221.68 777.556 1221.68Z" fill="#C04365"/>
    <path d="M1125.64 1078.73C1128.55 1078.73 1130.9 1076.37 1130.9 1073.47C1130.9 1070.56 1128.55 1068.2 1125.64 1068.2C1122.74 1068.2 1120.38 1070.56 1120.38 1073.47C1120.38 1076.37 1122.74 1078.73 1125.64 1078.73Z" fill="#EEE3D1"/>
    <path d="M1140.55 1078.73C1143.45 1078.73 1145.81 1076.37 1145.81 1073.47C1145.81 1070.56 1143.45 1068.2 1140.55 1068.2C1137.64 1068.2 1135.29 1070.56 1135.29 1073.47C1135.29 1076.37 1137.64 1078.73 1140.55 1078.73Z" fill="#FE926B"/>
    <path d="M1154.58 1078.73C1157.48 1078.73 1159.84 1076.37 1159.84 1073.47C1159.84 1070.56 1157.48 1068.2 1154.58 1068.2C1151.67 1068.2 1149.32 1070.56 1149.32 1073.47C1149.32 1076.37 1151.67 1078.73 1154.58 1078.73Z" fill="#C04365"/>
    <path d="M973.673 1244.13L998.815 1243.05L989.499 1266.95L973.673 1244.13Z" fill="#2CA28C"/>
    <path d="M1251 1391.05L1235.22 1371.45L1259.97 1364.76L1251 1391.05Z" fill="#2CA28C"/>
    <path d="M743.076 1357.98L766.443 1367.32L748.162 1385.3L743.076 1357.98Z" fill="#2CA28C"/>
    <path d="M819.489 1083.05L825.605 1058.62L845.859 1074.32L819.489 1083.05Z" fill="#2CA28C"/>
    <path d="M1275.55 1190.04L1281.65 1165.62L1301.92 1181.31L1275.55 1190.04Z" fill="#2CA28C"/>
    <path d="M1078.41 1303.87C1077.13 1306.22 1075.4 1308.26 1073.45 1310.08C1072.33 1308.72 1071.3 1307.25 1070.71 1305.69C1068.91 1300.98 1061.29 1303.02 1063.11 1307.8C1064.62 1311.74 1067.34 1315.3 1070.25 1318.32C1071.37 1319.46 1073.67 1319.99 1075.03 1318.94C1079.04 1315.84 1082.79 1312.4 1085.22 1307.86C1087.63 1303.39 1080.82 1299.4 1078.41 1303.87Z" fill="#2CA28C"/>
    <path d="M1424.32 1258.45C1423.05 1260.79 1421.32 1262.83 1419.37 1264.65C1418.25 1263.29 1417.22 1261.82 1416.63 1260.27C1414.83 1255.55 1407.2 1257.59 1409.02 1262.37C1410.54 1266.32 1413.25 1269.87 1416.17 1272.89C1417.29 1274.06 1419.59 1274.56 1420.95 1273.51C1424.96 1270.42 1428.71 1266.97 1431.14 1262.44C1433.55 1257.96 1426.73 1253.97 1424.32 1258.45Z" fill="#2CA28C"/>
    <path d="M1214.77 1220.76C1213.5 1223.1 1211.77 1225.14 1209.82 1226.96C1208.7 1225.6 1207.67 1224.13 1207.08 1222.58C1205.28 1217.86 1197.65 1219.9 1199.47 1224.68C1200.98 1228.63 1203.7 1232.18 1206.62 1235.21C1207.73 1236.37 1210.03 1236.87 1211.39 1235.82C1215.41 1232.73 1219.15 1229.29 1221.59 1224.75C1224 1220.27 1217.18 1216.28 1214.77 1220.76Z" fill="#FE926B"/>
    <path d="M903.508 1148.84C902.236 1151.19 900.505 1153.23 898.554 1155.05C897.436 1153.69 896.406 1152.22 895.814 1150.66C894.016 1145.95 886.388 1147.99 888.208 1152.77C889.72 1156.71 892.438 1160.27 895.353 1163.29C896.471 1164.45 898.773 1164.96 900.132 1163.91C904.143 1160.81 907.892 1157.37 910.325 1152.83C912.736 1148.36 905.919 1144.37 903.508 1148.84Z" fill="#FE926B"/>
    <path d="M1421.69 1066.38C1420.42 1068.73 1418.69 1070.77 1416.74 1072.59C1415.62 1071.23 1414.59 1069.76 1414 1068.2C1412.2 1063.49 1404.57 1065.53 1406.39 1070.31C1407.91 1074.26 1410.62 1077.81 1413.54 1080.83C1414.66 1081.97 1416.96 1082.5 1418.32 1081.45C1422.33 1078.36 1426.08 1074.91 1428.51 1070.37C1430.92 1065.9 1424.1 1061.91 1421.69 1066.38Z" fill="#FE926B"/>
    <path d="M743.931 1061.12C742.66 1063.47 740.928 1065.51 738.977 1067.33C737.859 1065.97 736.829 1064.5 736.237 1062.94C734.44 1058.23 726.812 1060.27 728.631 1065.05C730.144 1068.99 732.862 1072.55 735.777 1075.57C736.895 1076.71 739.197 1077.24 740.556 1076.18C744.567 1073.09 748.315 1069.65 750.748 1065.11C753.159 1060.64 746.342 1056.65 743.931 1061.12Z" fill="#FE926B"/>
    <path d="M1035.2 1157.53C1033.93 1159.87 1032.2 1161.91 1030.25 1163.73C1029.13 1162.37 1028.1 1160.9 1027.51 1159.35C1025.71 1154.63 1018.08 1156.67 1019.9 1161.45C1021.41 1165.4 1024.13 1168.95 1027.05 1171.97C1028.17 1173.14 1030.47 1173.64 1031.83 1172.59C1035.84 1169.5 1039.59 1166.05 1042.02 1161.52C1044.43 1157.04 1037.61 1153.05 1035.2 1157.53Z" fill="#C04365"/>
    <path d="M866.682 1321.59C865.411 1323.93 863.679 1325.97 861.728 1327.79C860.61 1326.43 859.58 1324.97 858.988 1323.41C857.191 1318.69 849.563 1320.73 851.382 1325.51C852.895 1329.46 855.613 1333.01 858.528 1336.04C859.646 1337.2 861.948 1337.7 863.307 1336.65C867.318 1333.56 871.066 1330.12 873.499 1325.58C875.911 1321.11 869.094 1317.12 866.682 1321.59Z" fill="#EEE3D1"/>
    <path d="M1409.42 1387.36C1408.15 1389.71 1406.41 1391.75 1404.46 1393.57C1403.35 1392.21 1402.32 1390.74 1401.72 1389.18C1399.93 1384.47 1392.3 1386.51 1394.12 1391.29C1395.63 1395.23 1398.35 1398.79 1401.26 1401.81C1402.38 1402.97 1404.68 1403.48 1406.04 1402.43C1410.05 1399.33 1413.8 1395.89 1416.23 1391.35C1418.65 1386.88 1411.83 1382.89 1409.42 1387.36Z" fill="#EEE3D1"/>
    <path d="M918.413 1066.38C917.142 1068.73 915.41 1070.77 913.459 1072.59C912.341 1071.23 911.311 1069.76 910.719 1068.2C908.922 1063.49 901.294 1065.53 903.113 1070.31C904.626 1074.26 907.344 1077.81 910.259 1080.83C911.377 1081.97 913.679 1082.5 915.038 1081.45C919.049 1078.36 922.797 1074.91 925.23 1070.37C927.641 1065.9 920.824 1061.91 918.413 1066.38Z" fill="#EEE3D1"/>
    <path d="M1268.25 1070.79C1266.98 1073.14 1265.25 1075.18 1263.3 1077C1262.18 1075.64 1261.15 1074.17 1260.56 1072.61C1258.76 1067.9 1251.13 1069.94 1252.95 1074.72C1254.47 1078.66 1257.18 1082.21 1260.1 1085.24C1261.22 1086.38 1263.52 1086.91 1264.88 1085.85C1268.89 1082.76 1272.64 1079.32 1275.07 1074.78C1277.48 1070.31 1270.67 1066.32 1268.25 1070.79Z" fill="#EEE3D1"/>
    <path d="M82.149 1142.97L57.4015 1118.21L82.149 1093.46L106.896 1118.21L82.149 1142.97ZM65.5996 1118.21L82.149 1134.77L98.6984 1118.21L82.149 1101.66L65.5996 1118.21Z" fill="#C04365"/>
    <path d="M659.299 1133.32L634.551 1108.57L659.299 1083.81L684.046 1108.57L659.299 1133.32ZM642.749 1108.57L659.299 1125.12L675.848 1108.57L659.299 1092.01L642.749 1108.57Z" fill="#2CA28C"/>
    <path d="M467.96 1338.32L443.213 1313.56L467.96 1288.81L492.708 1313.56L467.96 1338.32ZM451.411 1313.56L467.96 1330.12L484.51 1313.56L467.96 1297.01L451.411 1313.56Z" fill="#EEE3D1"/>
    <path d="M280.217 1130.69L255.469 1105.94L280.217 1081.18L304.964 1105.94L280.217 1130.69ZM263.667 1105.94L280.217 1122.49L296.766 1105.94L280.217 1089.38L263.667 1105.94Z" fill="#EEE3D1"/>
    <path d="M253.913 1381.51L229.165 1356.76L253.913 1332L278.66 1356.76L253.913 1381.51ZM237.363 1356.76L253.913 1373.31L270.462 1356.76L253.913 1340.2L237.363 1356.76Z" fill="#FE926B"/>
    <path d="M88.4181 1305.1H61.8732C60.01 1305.1 58.4755 1302.89 58.4755 1300.17C58.4755 1297.45 59.9881 1295.24 61.8732 1295.24H88.4181C90.2813 1295.24 91.8157 1297.45 91.8157 1300.17C91.8157 1302.89 90.3032 1305.1 88.4181 1305.1Z" fill="#FE926B"/>
    <path d="M676.747 1202.49H650.202C648.339 1202.49 646.804 1200.28 646.804 1197.56C646.804 1194.84 648.317 1192.63 650.202 1192.63H676.747C678.61 1192.63 680.144 1194.84 680.144 1197.56C680.144 1200.28 678.632 1202.49 676.747 1202.49Z" fill="#FE926B"/>
    <path d="M214.676 1218.28H188.131C186.268 1218.28 184.734 1216.06 184.734 1213.35C184.734 1210.63 186.246 1208.41 188.131 1208.41H214.676C216.54 1208.41 218.074 1210.63 218.074 1213.35C218.074 1216.06 216.562 1218.28 214.676 1218.28Z" fill="#C04365"/>
    <path d="M552.242 1130.58H525.697C523.834 1130.58 492.708 1125.21 492.708 1122.49C492.708 1119.77 523.812 1120.71 525.697 1120.71H552.242C554.105 1120.71 555.64 1122.93 555.64 1125.65C555.64 1128.37 554.127 1130.58 552.242 1130.58Z" fill="#2CA28C"/>
    <path d="M380.281 1201.51C383.186 1201.51 385.542 1199.15 385.542 1196.24C385.542 1193.34 383.186 1190.98 380.281 1190.98C377.375 1190.98 375.02 1193.34 375.02 1196.24C375.02 1199.15 377.375 1201.51 380.281 1201.51Z" fill="#EEE3D1"/>
    <path d="M395.186 1201.51C398.092 1201.51 400.447 1199.15 400.447 1196.24C400.447 1193.34 398.092 1190.98 395.186 1190.98C392.281 1190.98 389.926 1193.34 389.926 1196.24C389.926 1199.15 392.281 1201.51 395.186 1201.51Z" fill="#FE926B"/>
    <path d="M409.215 1201.51C412.121 1201.51 414.476 1199.15 414.476 1196.24C414.476 1193.34 412.121 1190.98 409.215 1190.98C406.31 1190.98 403.954 1193.34 403.954 1196.24C403.954 1199.15 406.31 1201.51 409.215 1201.51Z" fill="#C04365"/>
    <path d="M618.769 1321.65C621.674 1321.65 624.03 1319.3 624.03 1316.39C624.03 1313.49 621.674 1311.13 618.769 1311.13C615.863 1311.13 613.508 1313.49 613.508 1316.39C613.508 1319.3 615.863 1321.65 618.769 1321.65Z" fill="#EEE3D1"/>
    <path d="M633.674 1321.65C636.58 1321.65 638.935 1319.3 638.935 1316.39C638.935 1313.49 636.58 1311.13 633.674 1311.13C630.769 1311.13 628.414 1313.49 628.414 1316.39C628.414 1319.3 630.769 1321.65 633.674 1321.65Z" fill="#FE926B"/>
    <path d="M647.703 1321.65C650.608 1321.65 652.964 1319.3 652.964 1316.39C652.964 1313.49 650.608 1311.13 647.703 1311.13C644.798 1311.13 642.442 1313.49 642.442 1316.39C642.442 1319.3 644.798 1321.65 647.703 1321.65Z" fill="#C04365"/>
    <path d="M40.0848 1221.68C42.9903 1221.68 45.3457 1219.32 45.3457 1216.42C45.3457 1213.51 42.9903 1211.15 40.0848 1211.15C37.1794 1211.15 34.8241 1213.51 34.8241 1216.42C34.8241 1219.32 37.1794 1221.68 40.0848 1221.68Z" fill="#EEE3D1"/>
    <path d="M54.9903 1221.68C57.8958 1221.68 60.251 1219.32 60.251 1216.42C60.251 1213.51 57.8958 1211.15 54.9903 1211.15C52.0849 1211.15 49.7296 1213.51 49.7296 1216.42C49.7296 1219.32 52.0849 1221.68 54.9903 1221.68Z" fill="#FE926B"/>
    <path d="M69.019 1221.68C71.9245 1221.68 74.2799 1219.32 74.2799 1216.42C74.2799 1213.51 71.9245 1211.15 69.019 1211.15C66.1136 1211.15 63.7583 1213.51 63.7583 1216.42C63.7583 1219.32 66.1136 1221.68 69.019 1221.68Z" fill="#C04365"/>
    <path d="M417.106 1078.73C420.012 1078.73 422.367 1076.37 422.367 1073.47C422.367 1070.56 420.012 1068.2 417.106 1068.2C414.201 1068.2 411.845 1070.56 411.845 1073.47C411.845 1076.37 414.201 1078.73 417.106 1078.73Z" fill="#EEE3D1"/>
    <path d="M432.012 1078.73C434.917 1078.73 437.272 1076.37 437.272 1073.47C437.272 1070.56 434.917 1068.2 432.012 1068.2C429.106 1068.2 426.751 1070.56 426.751 1073.47C426.751 1076.37 429.106 1078.73 432.012 1078.73Z" fill="#FE926B"/>
    <path d="M446.04 1078.73C448.946 1078.73 451.301 1076.37 451.301 1073.47C451.301 1070.56 448.946 1068.2 446.04 1068.2C443.135 1068.2 440.78 1070.56 440.78 1073.47C440.78 1076.37 443.135 1078.73 446.04 1078.73Z" fill="#C04365"/>
    <path d="M265.114 1244.13L290.256 1243.05L280.94 1266.95L265.114 1244.13Z" fill="#2CA28C"/>
    <path d="M542.444 1391.05L526.662 1371.45L551.409 1364.76L542.444 1391.05Z" fill="#2CA28C"/>
    <path d="M34.5391 1357.98L57.9057 1367.32L39.6027 1385.3L34.5391 1357.98Z" fill="#2CA28C"/>
    <path d="M110.93 1083.05L117.045 1058.62L137.299 1074.32L110.93 1083.05Z" fill="#2CA28C"/>
    <path d="M566.994 1190.04L573.11 1165.62L593.364 1181.31L566.994 1190.04Z" fill="#2CA28C"/>
    <path d="M369.847 1303.87C368.576 1306.22 366.844 1308.26 364.893 1310.08C363.775 1308.72 362.745 1307.25 362.153 1305.69C360.356 1300.98 352.728 1303.02 354.547 1307.8C356.059 1311.74 358.778 1315.3 361.693 1318.32C362.811 1319.46 365.112 1319.99 366.471 1318.94C370.483 1315.84 374.231 1312.4 376.664 1307.86C379.075 1303.39 372.258 1299.4 369.847 1303.87Z" fill="#2CA28C"/>
    <path d="M715.786 1258.45C714.515 1260.79 712.783 1262.83 710.832 1264.65C709.714 1263.29 708.684 1261.82 708.092 1260.27C706.295 1255.55 698.667 1257.59 700.486 1262.37C701.998 1266.32 704.717 1269.87 707.632 1272.89C708.75 1274.06 711.051 1274.56 712.41 1273.51C716.422 1270.42 720.17 1266.97 722.603 1262.44C725.014 1257.96 718.197 1253.97 715.786 1258.45Z" fill="#2CA28C"/>
    <path d="M506.232 1220.76C504.961 1223.1 503.229 1225.14 501.278 1226.96C500.16 1225.6 499.13 1224.13 498.538 1222.58C496.741 1217.86 489.113 1219.9 490.932 1224.68C492.445 1228.63 495.163 1232.18 498.078 1235.21C499.196 1236.37 501.498 1236.87 502.857 1235.82C506.868 1232.73 510.616 1229.29 513.049 1224.75C515.461 1220.27 508.643 1216.28 506.232 1220.76Z" fill="#FE926B"/>
    <path d="M194.97 1148.84C193.699 1151.19 191.967 1153.23 190.016 1155.05C188.899 1153.69 187.868 1152.22 187.277 1150.66C185.479 1145.95 177.851 1147.99 179.67 1152.77C181.183 1156.71 183.901 1160.27 186.816 1163.29C187.934 1164.45 190.236 1164.96 191.595 1163.91C195.606 1160.81 199.354 1157.37 201.788 1152.83C204.199 1148.36 197.382 1144.37 194.97 1148.84Z" fill="#FE926B"/>
    <path d="M713.156 1066.38C711.884 1068.73 710.153 1070.77 708.202 1072.59C707.084 1071.23 706.054 1069.76 705.462 1068.2C703.664 1063.49 696.036 1065.53 697.856 1070.31C699.368 1074.26 702.086 1077.81 705.002 1080.83C706.12 1081.97 708.421 1082.5 709.78 1081.45C713.791 1078.36 717.54 1074.91 719.973 1070.37C722.384 1065.9 715.567 1061.91 713.156 1066.38Z" fill="#FE926B"/>
    <path d="M35.3941 1061.12C34.1227 1063.47 32.3909 1065.51 30.44 1067.33C29.3221 1065.97 28.2919 1064.5 27.7001 1062.94C25.9026 1058.23 18.2745 1060.27 20.0938 1065.05C21.6063 1068.99 24.3245 1072.55 27.2398 1075.57C28.3577 1076.71 30.6594 1077.24 32.0184 1076.18C36.0297 1073.09 39.778 1069.65 42.2111 1065.11C44.6222 1060.64 37.8052 1056.65 35.3941 1061.12Z" fill="#FE926B"/>
    <path d="M326.643 1157.53C325.372 1159.87 323.64 1161.91 321.689 1163.73C320.571 1162.37 319.541 1160.9 318.949 1159.35C317.152 1154.63 309.524 1156.67 311.343 1161.45C312.855 1165.4 315.574 1168.95 318.489 1171.97C319.607 1173.14 321.908 1173.64 323.267 1172.59C327.279 1169.5 331.027 1166.05 333.46 1161.52C335.871 1157.04 329.054 1153.05 326.643 1157.53Z" fill="#C04365"/>
    <path d="M158.145 1321.59C156.874 1323.93 155.142 1325.97 153.191 1327.79C152.073 1326.43 151.043 1324.97 150.451 1323.41C148.654 1318.69 141.026 1320.73 142.845 1325.51C144.357 1329.46 147.076 1333.01 149.991 1336.04C151.109 1337.2 153.41 1337.7 154.77 1336.65C158.781 1333.56 162.529 1330.12 164.962 1325.58C167.373 1321.11 160.556 1317.12 158.145 1321.59Z" fill="#EEE3D1"/>
    <path d="M700.88 1387.36C699.609 1389.71 697.877 1391.75 695.927 1393.57C694.809 1392.21 693.778 1390.74 693.187 1389.18C691.389 1384.47 683.761 1386.51 685.58 1391.29C687.093 1395.23 689.811 1398.79 692.726 1401.81C693.844 1402.97 696.146 1403.48 697.505 1402.43C701.516 1399.33 705.264 1395.89 707.698 1391.35C710.109 1386.88 703.292 1382.89 700.88 1387.36Z" fill="#EEE3D1"/>
    <path d="M209.854 1066.38C208.583 1068.73 206.851 1070.77 204.9 1072.59C203.782 1071.23 202.752 1069.76 202.16 1068.2C200.363 1063.49 192.735 1065.53 194.554 1070.31C196.066 1074.26 198.785 1077.81 201.7 1080.83C202.818 1081.97 205.119 1082.5 206.478 1081.45C210.49 1078.36 214.238 1074.91 216.671 1070.37C219.082 1065.9 212.265 1061.91 209.854 1066.38Z" fill="#EEE3D1"/>
    <path d="M559.695 1070.79C558.423 1073.14 556.692 1075.18 554.741 1077C553.623 1075.64 552.593 1074.17 552.001 1072.61C550.204 1067.9 542.575 1069.94 544.395 1074.72C545.907 1078.66 548.625 1082.21 551.541 1085.24C552.659 1086.38 554.96 1086.91 556.319 1085.85C560.331 1082.76 564.079 1079.32 566.512 1074.78C568.923 1070.31 562.106 1066.32 559.695 1070.79Z" fill="#EEE3D1"/>
    <path d="M1144.98 436.397L1120.23 411.644L1144.98 386.891L1169.72 411.644L1144.98 436.397ZM1128.43 411.644L1144.98 428.197L1161.53 411.644L1144.98 395.091L1128.43 411.644Z" fill="#C04365"/>
    <path d="M1343.04 424.119L1318.3 399.366L1343.04 374.613L1367.79 399.366L1343.04 424.119ZM1326.49 399.366L1343.04 415.919L1359.59 399.366L1343.04 382.813L1326.49 399.366Z" fill="#EEE3D1"/>
    <path d="M1148.4 904.711L1123.65 879.958L1148.4 855.205L1173.14 879.958L1148.4 904.711ZM1131.85 879.958L1148.4 896.511L1164.95 879.958L1148.4 863.404L1131.85 879.958Z" fill="#FE926B"/>
    <path d="M1316.74 674.939L1291.99 650.186L1316.74 625.433L1341.49 650.186L1316.74 674.939ZM1300.19 650.186L1316.74 666.739L1333.29 650.186L1316.74 633.633L1300.19 650.186Z" fill="#FE926B"/>
    <path d="M1151.25 598.531H1124.7C1122.84 598.531 1121.3 596.317 1121.3 593.598C1121.3 590.879 1122.82 588.665 1124.7 588.665H1151.25C1153.11 588.665 1154.64 590.879 1154.64 593.598C1154.64 596.317 1153.13 598.531 1151.25 598.531Z" fill="#FE926B"/>
    <path d="M1277.5 511.709H1250.96C1249.1 511.709 1247.56 509.495 1247.56 506.776C1247.56 504.057 1249.07 501.843 1250.96 501.843H1277.5C1279.37 501.843 1280.9 504.057 1280.9 506.776C1280.9 509.495 1279.39 511.709 1277.5 511.709Z" fill="#C04365"/>
    <path d="M1373.07 913.371H1346.53C1344.67 913.371 1343.13 911.157 1343.13 908.438C1343.13 905.719 1344.64 903.505 1346.53 903.505H1373.07C1374.94 903.505 1376.47 905.719 1376.47 908.438C1376.47 911.157 1374.96 913.371 1373.07 913.371Z" fill="#C04365"/>
    <path d="M1196.84 1046.67H1170.29C1168.43 1046.67 1166.9 1044.46 1166.9 1041.74C1166.9 1039.02 1168.41 1036.81 1170.29 1036.81H1196.84C1198.7 1036.81 1200.24 1039.02 1200.24 1041.74C1200.24 1044.46 1198.72 1046.67 1196.84 1046.67Z" fill="#2CA28C"/>
    <path d="M1131.96 730.08H1105.41C1103.55 730.08 1102.01 727.865 1102.01 725.147C1102.01 722.428 1103.53 720.214 1105.41 720.214H1131.96C1133.82 720.214 1135.35 722.428 1135.35 725.147C1135.35 727.865 1133.84 730.08 1131.96 730.08Z" fill="#2CA28C"/>
    <path d="M1366.06 750.251H1339.52C1337.65 750.251 1336.12 748.036 1336.12 745.318C1336.12 742.599 1337.63 740.384 1339.52 740.384H1366.06C1367.92 740.384 1369.46 742.599 1369.46 745.318C1369.46 748.036 1367.95 750.251 1366.06 750.251Z" fill="#EEE3D1"/>
    <path d="M1354.55 1045.69C1357.46 1045.69 1359.81 1043.33 1359.81 1040.43C1359.81 1037.52 1357.46 1035.16 1354.55 1035.16C1351.65 1035.16 1349.29 1037.52 1349.29 1040.43C1349.29 1043.33 1351.65 1045.69 1354.55 1045.69Z" fill="#EEE3D1"/>
    <path d="M1369.46 1045.69C1372.36 1045.69 1374.72 1043.33 1374.72 1040.43C1374.72 1037.52 1372.36 1035.16 1369.46 1035.16C1366.55 1035.16 1364.2 1037.52 1364.2 1040.43C1364.2 1043.33 1366.55 1045.69 1369.46 1045.69Z" fill="#FE926B"/>
    <path d="M1383.49 1045.69C1386.39 1045.69 1388.75 1043.33 1388.75 1040.43C1388.75 1037.52 1386.39 1035.16 1383.49 1035.16C1380.58 1035.16 1378.23 1037.52 1378.23 1040.43C1378.23 1043.33 1380.58 1045.69 1383.49 1045.69Z" fill="#C04365"/>
    <path d="M1211.64 821.177C1214.54 821.177 1216.9 818.821 1216.9 815.915C1216.9 813.009 1214.54 810.654 1211.64 810.654C1208.73 810.654 1206.37 813.009 1206.37 815.915C1206.37 818.821 1208.73 821.177 1211.64 821.177Z" fill="#EEE3D1"/>
    <path d="M1226.54 821.177C1229.45 821.177 1231.8 818.821 1231.8 815.915C1231.8 813.009 1229.45 810.654 1226.54 810.654C1223.63 810.654 1221.28 813.009 1221.28 815.915C1221.28 818.821 1223.63 821.177 1226.54 821.177Z" fill="#FE926B"/>
    <path d="M1240.57 821.177C1243.47 821.177 1245.83 818.821 1245.83 815.915C1245.83 813.009 1243.47 810.654 1240.57 810.654C1237.66 810.654 1235.31 813.009 1235.31 815.915C1235.31 818.821 1237.66 821.177 1240.57 821.177Z" fill="#C04365"/>
    <path d="M1102.91 515.107C1105.82 515.107 1108.17 512.751 1108.17 509.845C1108.17 506.939 1105.82 504.583 1102.91 504.583C1100.01 504.583 1097.65 506.939 1097.65 509.845C1097.65 512.751 1100.01 515.107 1102.91 515.107Z" fill="#EEE3D1"/>
    <path d="M1117.82 515.107C1120.72 515.107 1123.08 512.751 1123.08 509.845C1123.08 506.939 1120.72 504.583 1117.82 504.583C1114.91 504.583 1112.56 506.939 1112.56 509.845C1112.56 512.751 1114.91 515.107 1117.82 515.107Z" fill="#FE926B"/>
    <path d="M1131.85 515.107C1134.75 515.107 1137.11 512.751 1137.11 509.845C1137.11 506.939 1134.75 504.583 1131.85 504.583C1128.94 504.583 1126.59 506.939 1126.59 509.845C1126.59 512.751 1128.94 515.107 1131.85 515.107Z" fill="#C04365"/>
    <path d="M1327.94 537.558L1353.08 536.484L1343.77 560.382L1327.94 537.558Z" fill="#2CA28C"/>
    <path d="M1143.66 959.589L1167.03 968.929L1148.75 986.885L1143.66 959.589Z" fill="#2CA28C"/>
    <path d="M1097.37 651.436L1120.73 660.776L1102.45 678.732L1097.37 651.436Z" fill="#2CA28C"/>
    <path d="M1173.78 376.477L1179.87 352.053L1200.15 367.751L1173.78 376.477Z" fill="#2CA28C"/>
    <path d="M1432.67 597.303C1431.4 599.649 1429.67 601.688 1427.72 603.508C1426.6 602.149 1425.57 600.68 1424.98 599.123C1423.18 594.409 1415.56 596.448 1417.37 601.228C1418.89 605.174 1421.6 608.726 1424.52 611.752C1425.64 612.892 1427.94 613.418 1429.3 612.366C1433.31 609.274 1437.06 605.832 1439.49 601.294C1441.9 596.821 1435.09 592.831 1432.67 597.303Z" fill="#2CA28C"/>
    <path d="M1235.57 708.528C1234.3 710.874 1232.57 712.913 1230.62 714.733C1229.5 713.373 1228.47 711.904 1227.88 710.348C1226.08 705.634 1218.45 707.673 1220.27 712.452C1221.78 716.399 1224.5 719.951 1227.42 722.976C1228.54 724.116 1230.84 724.643 1232.2 723.59C1236.21 720.499 1239.96 717.057 1242.39 712.518C1244.8 708.045 1237.98 704.055 1235.57 708.528Z" fill="#2CA28C"/>
    <path d="M1098.79 1033.89C1097.52 1036.24 1095.79 1038.28 1093.84 1040.1C1092.72 1038.74 1091.69 1037.27 1091.1 1035.71C1089.3 1031 1081.67 1033.04 1083.49 1037.82C1085 1041.76 1087.72 1045.31 1090.64 1048.34C1091.76 1049.48 1094.06 1050.01 1095.42 1048.95C1099.43 1045.86 1103.18 1042.42 1105.61 1037.88C1108.02 1033.41 1101.2 1029.42 1098.79 1033.89Z" fill="#2CA28C"/>
    <path d="M1257.8 442.273C1256.53 444.619 1254.8 446.658 1252.84 448.478C1251.73 447.118 1250.7 445.65 1250.1 444.093C1248.31 439.379 1240.68 441.418 1242.5 446.198C1244.01 450.144 1246.73 453.696 1249.64 456.722C1250.76 457.862 1253.06 458.388 1254.42 457.335C1258.43 454.244 1262.18 450.802 1264.62 446.263C1267.03 441.791 1260.21 437.8 1257.8 442.273Z" fill="#FE926B"/>
    <path d="M1404.22 804.471C1402.95 806.817 1401.22 808.856 1399.27 810.675C1398.15 809.316 1397.12 807.847 1396.53 806.29C1394.73 801.577 1387.1 803.616 1388.92 808.395C1390.44 812.342 1393.15 815.893 1396.07 818.919C1397.19 820.059 1399.49 820.585 1400.85 819.533C1404.86 816.442 1408.61 812.999 1411.04 808.461C1413.45 803.988 1406.63 799.998 1404.22 804.471Z" fill="#FE926B"/>
    <path d="M1098.22 354.574C1096.95 356.92 1095.22 358.959 1093.27 360.779C1092.15 359.419 1091.12 357.95 1090.53 356.394C1088.73 351.68 1081.1 353.719 1082.92 358.498C1084.43 362.445 1087.15 365.997 1090.07 369.022C1091.19 370.162 1093.49 370.689 1094.85 369.636C1098.86 366.545 1102.61 363.103 1105.04 358.564C1107.45 354.092 1100.63 350.101 1098.22 354.574Z" fill="#FE926B"/>
    <path d="M1092.96 806.225C1091.69 808.571 1089.96 810.61 1088.01 812.429C1086.89 811.07 1085.86 809.601 1085.27 808.044C1083.47 803.331 1075.84 805.37 1077.66 810.149C1079.17 814.096 1081.89 817.648 1084.81 820.673C1085.92 821.813 1088.23 822.339 1089.59 821.287C1093.6 818.196 1097.34 814.753 1099.78 810.215C1102.19 805.742 1095.37 801.752 1092.96 806.225Z" fill="#FE926B"/>
    <path d="M1277.26 967.503C1275.99 969.849 1274.26 971.888 1272.31 973.708C1271.19 972.349 1270.16 970.88 1269.57 969.323C1267.77 964.609 1260.14 966.648 1261.96 971.428C1263.48 975.374 1266.19 978.926 1269.11 981.952C1270.23 983.092 1272.53 983.618 1273.89 982.566C1277.9 979.474 1281.65 976.032 1284.08 971.494C1286.49 967.021 1279.67 963.031 1277.26 967.503Z" fill="#C04365"/>
    <path d="M1389.47 450.955C1388.2 453.301 1386.47 455.34 1384.52 457.16C1383.4 455.801 1382.37 454.332 1381.78 452.775C1379.98 448.061 1372.35 450.1 1374.17 454.88C1375.68 458.826 1378.4 462.378 1381.32 465.404C1382.43 466.544 1384.74 467.07 1386.09 466.018C1390.11 462.926 1393.85 459.484 1396.29 454.946C1398.7 450.473 1391.88 446.483 1389.47 450.955Z" fill="#C04365"/>
    <path d="M1220.97 615.04C1219.7 617.386 1217.97 619.425 1216.02 621.245C1214.9 619.886 1213.87 618.417 1213.28 616.86C1211.48 612.146 1203.85 614.185 1205.67 618.965C1207.19 622.911 1209.9 626.463 1212.82 629.489C1213.94 630.629 1216.24 631.155 1217.6 630.103C1221.61 627.011 1225.36 623.569 1227.79 619.031C1230.2 614.558 1223.38 610.568 1220.97 615.04Z" fill="#EEE3D1"/>
    <path d="M1272.7 359.836C1271.43 362.182 1269.7 364.221 1267.75 366.04C1266.63 364.681 1265.6 363.212 1265.01 361.656C1263.21 356.942 1255.58 358.981 1257.4 363.76C1258.92 367.707 1261.63 371.259 1264.55 374.284C1265.67 375.424 1267.97 375.951 1269.33 374.898C1273.34 371.807 1277.09 368.365 1279.52 363.826C1281.93 359.353 1275.11 355.363 1272.7 359.836Z" fill="#EEE3D1"/>
    <path d="M1412.99 966.714C1411.72 969.06 1409.99 971.099 1408.04 972.919C1406.92 971.559 1405.89 970.091 1405.3 968.534C1403.5 963.82 1395.87 965.859 1397.69 970.639C1399.2 974.585 1401.92 978.137 1404.84 981.163C1405.95 982.303 1408.26 982.829 1409.61 981.776C1413.63 978.685 1417.37 975.243 1419.81 970.704C1422.22 966.232 1415.4 962.241 1412.99 966.714Z" fill="#EEE3D1"/>
    <path d="M436.418 436.397L411.67 411.644L436.418 386.891L461.165 411.644L436.418 436.397ZM419.868 411.644L436.418 428.197L452.967 411.644L436.418 395.091L419.868 411.644Z" fill="#C04365"/>
    <path d="M1023.87 852.091L999.122 827.338L1023.87 802.585L1048.62 827.338L1023.87 852.091ZM1007.32 827.338L1023.87 843.891L1040.42 827.338L1023.87 810.785L1007.32 827.338Z" fill="#C04365"/>
    <path d="M819.489 1029.24L794.741 1004.49L819.489 979.737L844.236 1004.49L819.489 1029.24ZM802.939 1004.49L819.489 1021.04L836.038 1004.49L819.489 987.937L802.939 1004.49Z" fill="#2CA28C"/>
    <path d="M1013.57 426.75L988.82 401.997L1013.57 377.244L1038.31 401.997L1013.57 426.75ZM997.018 401.997L1013.57 418.55L1030.12 401.997L1013.57 385.444L997.018 401.997Z" fill="#2CA28C"/>
    <path d="M822.229 631.747L797.481 606.994L822.229 582.241L846.976 606.994L822.229 631.747ZM805.679 606.994L822.229 623.547L838.778 606.994L822.229 590.441L805.679 606.994Z" fill="#EEE3D1"/>
    <path d="M634.485 424.119L609.738 399.366L634.485 374.613L659.233 399.366L634.485 424.119ZM617.936 399.366L634.485 415.919L651.035 399.366L634.485 382.813L617.936 399.366Z" fill="#EEE3D1"/>
    <path d="M439.837 904.711L415.09 879.958L439.837 855.205L464.585 879.958L439.837 904.711ZM423.288 879.958L439.837 896.511L456.387 879.958L439.837 863.404L423.288 879.958Z" fill="#FE926B"/>
    <path d="M608.181 674.939L583.434 650.186L608.181 625.433L632.929 650.186L608.181 674.939ZM591.632 650.186L608.181 666.739L624.731 650.186L608.181 633.633L591.632 650.186Z" fill="#FE926B"/>
    <path d="M442.687 598.531H416.142C414.279 598.531 412.744 596.317 412.744 593.598C412.744 590.879 414.257 588.665 416.142 588.665H442.687C444.55 588.665 446.084 590.879 446.084 593.598C446.084 596.317 444.572 598.531 442.687 598.531Z" fill="#FE926B"/>
    <path d="M876.7 830.934H850.155C848.292 830.934 846.757 828.72 846.757 826.001C846.757 823.282 848.27 821.068 850.155 821.068H876.7C878.563 821.068 880.097 823.282 880.097 826.001C880.097 828.72 878.585 830.934 876.7 830.934Z" fill="#FE926B"/>
    <path d="M1031.04 495.923H1004.49C1002.63 495.923 1001.09 493.709 1001.09 490.99C1001.09 488.271 1002.61 486.057 1004.49 486.057H1031.04C1032.9 486.057 1034.43 488.271 1034.43 490.99C1034.43 493.709 1032.92 495.923 1031.04 495.923Z" fill="#FE926B"/>
    <path d="M568.945 511.709H542.4C540.537 511.709 539.003 509.495 539.003 506.776C539.003 504.057 540.515 501.843 542.4 501.843H568.945C570.808 501.843 572.343 504.057 572.343 506.776C572.343 509.495 570.83 511.709 568.945 511.709Z" fill="#C04365"/>
    <path d="M906.532 424.01H879.988C878.124 424.01 876.59 421.795 876.59 419.077C876.59 416.358 878.102 414.144 879.988 414.144H906.532C908.396 414.144 909.93 416.358 909.93 419.077C909.93 421.795 908.418 424.01 906.532 424.01Z" fill="#2CA28C"/>
    <path d="M1017.01 739.727H990.464C988.6 739.727 987.066 737.512 987.066 734.794C987.066 732.075 988.579 729.861 990.464 729.861H1017.01C1018.87 729.861 1020.41 732.075 1020.41 734.794C1020.41 737.512 1018.89 739.727 1017.01 739.727Z" fill="#C04365"/>
    <path d="M664.538 913.371H637.993C636.129 913.371 634.595 911.157 634.595 908.438C634.595 905.719 636.108 903.505 637.993 903.505H664.538C666.401 903.505 667.935 905.719 667.935 908.438C667.935 911.157 666.423 913.371 664.538 913.371Z" fill="#C04365"/>
    <path d="M488.302 1046.67H461.757C459.894 1046.67 458.359 1044.46 458.359 1041.74C458.359 1039.02 459.872 1036.81 461.757 1036.81H488.302C490.165 1036.81 491.7 1039.02 491.7 1041.74C491.7 1044.46 490.187 1046.67 488.302 1046.67Z" fill="#2CA28C"/>
    <path d="M423.419 730.08H396.874C395.011 730.08 393.477 727.865 393.477 725.147C393.477 722.428 394.989 720.214 396.874 720.214H423.419C425.282 720.214 426.817 722.428 426.817 725.147C426.817 727.865 425.304 730.08 423.419 730.08Z" fill="#2CA28C"/>
    <path d="M657.523 750.251H630.978C629.115 750.251 627.581 748.036 627.581 745.318C627.581 742.599 629.093 740.384 630.978 740.384H657.523C659.386 740.384 660.921 742.599 660.921 745.318C660.921 748.036 659.408 750.251 657.523 750.251Z" fill="#EEE3D1"/>
    <path d="M973.169 1012.47H946.624C944.761 1012.47 943.226 1010.26 943.226 1007.54C943.226 1004.82 944.739 1002.6 946.624 1002.6H973.169C975.032 1002.6 976.566 1004.82 976.566 1007.54C976.566 1010.26 975.054 1012.47 973.169 1012.47Z" fill="#EEE3D1"/>
    <path d="M758.223 734.355C761.128 734.355 763.484 731.999 763.484 729.093C763.484 726.187 761.128 723.831 758.223 723.831C755.318 723.831 752.962 726.187 752.962 729.093C752.962 731.999 755.318 734.355 758.223 734.355Z" fill="#EEE3D1"/>
    <path d="M773.129 734.355C776.034 734.355 778.389 731.999 778.389 729.093C778.389 726.187 776.034 723.831 773.129 723.831C770.223 723.831 767.868 726.187 767.868 729.093C767.868 731.999 770.223 734.355 773.129 734.355Z" fill="#FE926B"/>
    <path d="M787.157 734.355C790.062 734.355 792.418 731.999 792.418 729.093C792.418 726.187 790.062 723.831 787.157 723.831C784.252 723.831 781.896 726.187 781.896 729.093C781.896 731.999 784.252 734.355 787.157 734.355Z" fill="#C04365"/>
    <path d="M734.549 494.936C737.455 494.936 739.81 492.581 739.81 489.674C739.81 486.768 737.455 484.413 734.549 484.413C731.644 484.413 729.289 486.768 729.289 489.674C729.289 492.581 731.644 494.936 734.549 494.936Z" fill="#EEE3D1"/>
    <path d="M749.455 494.936C752.36 494.936 754.716 492.581 754.716 489.674C754.716 486.768 752.36 484.412 749.455 484.412C746.55 484.412 744.194 486.768 744.194 489.674C744.194 492.581 746.55 494.936 749.455 494.936Z" fill="#FE926B"/>
    <path d="M763.484 494.936C766.389 494.936 768.744 492.581 768.744 489.674C768.744 486.768 766.389 484.412 763.484 484.412C760.578 484.412 758.223 486.768 758.223 489.674C758.223 492.581 760.578 494.936 763.484 494.936Z" fill="#C04365"/>
    <path d="M973.037 615.084C975.943 615.084 978.298 612.728 978.298 609.822C978.298 606.916 975.943 604.56 973.037 604.56C970.132 604.56 967.777 606.916 967.777 609.822C967.777 612.728 970.132 615.084 973.037 615.084Z" fill="#EEE3D1"/>
    <path d="M987.943 615.084C990.849 615.084 993.204 612.728 993.204 609.822C993.204 606.916 990.849 604.56 987.943 604.56C985.038 604.56 982.682 606.916 982.682 609.822C982.682 612.728 985.038 615.084 987.943 615.084Z" fill="#FE926B"/>
    <path d="M1001.97 615.084C1004.88 615.084 1007.23 612.728 1007.23 609.822C1007.23 606.916 1004.88 604.56 1001.97 604.56C999.066 604.56 996.711 606.916 996.711 609.822C996.711 612.728 999.066 615.084 1001.97 615.084Z" fill="#C04365"/>
    <path d="M960.762 930.801C963.668 930.801 966.023 928.445 966.023 925.539C966.023 922.633 963.668 920.277 960.762 920.277C957.857 920.277 955.501 922.633 955.501 925.539C955.501 928.445 957.857 930.801 960.762 930.801Z" fill="#EEE3D1"/>
    <path d="M975.668 930.801C978.573 930.801 980.929 928.445 980.929 925.539C980.929 922.633 978.573 920.277 975.668 920.277C972.762 920.277 970.407 922.633 970.407 925.539C970.407 928.445 972.762 930.801 975.668 930.801Z" fill="#FE926B"/>
    <path d="M989.696 930.801C992.602 930.801 994.957 928.445 994.957 925.539C994.957 922.633 992.602 920.277 989.696 920.277C986.791 920.277 984.436 922.633 984.436 925.539C984.436 928.445 986.791 930.801 989.696 930.801Z" fill="#C04365"/>
    <path d="M645.993 1045.69C648.899 1045.69 651.254 1043.33 651.254 1040.43C651.254 1037.52 648.899 1035.16 645.993 1035.16C643.088 1035.16 640.732 1037.52 640.732 1040.43C640.732 1043.33 643.088 1045.69 645.993 1045.69Z" fill="#EEE3D1"/>
    <path d="M660.899 1045.69C663.804 1045.69 666.16 1043.33 666.16 1040.43C666.16 1037.52 663.804 1035.16 660.899 1035.16C657.993 1035.16 655.638 1037.52 655.638 1040.43C655.638 1043.33 657.993 1045.69 660.899 1045.69Z" fill="#FE926B"/>
    <path d="M674.927 1045.69C677.833 1045.69 680.188 1043.33 680.188 1040.43C680.188 1037.52 677.833 1035.16 674.927 1035.16C672.022 1035.16 669.667 1037.52 669.667 1040.43C669.667 1043.33 672.022 1045.69 674.927 1045.69Z" fill="#C04365"/>
    <path d="M503.076 821.177C505.981 821.177 508.337 818.821 508.337 815.915C508.337 813.009 505.981 810.654 503.076 810.654C500.17 810.654 497.815 813.009 497.815 815.915C497.815 818.821 500.17 821.177 503.076 821.177Z" fill="#EEE3D1"/>
    <path d="M517.981 821.177C520.887 821.177 523.242 818.821 523.242 815.915C523.242 813.009 520.887 810.654 517.981 810.654C515.076 810.654 512.721 813.009 512.721 815.915C512.721 818.821 515.076 821.177 517.981 821.177Z" fill="#FE926B"/>
    <path d="M532.01 821.177C534.915 821.177 537.271 818.821 537.271 815.915C537.271 813.009 534.915 810.654 532.01 810.654C529.105 810.654 526.749 813.009 526.749 815.915C526.749 818.821 529.105 821.177 532.01 821.177Z" fill="#C04365"/>
    <path d="M394.353 515.107C397.259 515.107 399.614 512.751 399.614 509.845C399.614 506.939 397.259 504.583 394.353 504.583C391.448 504.583 389.093 506.939 389.093 509.845C389.093 512.751 391.448 515.107 394.353 515.107Z" fill="#EEE3D1"/>
    <path d="M409.259 515.107C412.164 515.107 414.52 512.751 414.52 509.845C414.52 506.939 412.164 504.583 409.259 504.583C406.354 504.583 403.998 506.939 403.998 509.845C403.998 512.751 406.354 515.107 409.259 515.107Z" fill="#FE926B"/>
    <path d="M423.288 515.107C426.193 515.107 428.549 512.751 428.549 509.845C428.549 506.939 426.193 504.583 423.288 504.583C420.382 504.583 418.027 506.939 418.027 509.845C418.027 512.751 420.382 515.107 423.288 515.107Z" fill="#C04365"/>
    <path d="M771.375 372.158C774.28 372.158 776.636 369.802 776.636 366.896C776.636 363.99 774.28 361.634 771.375 361.634C768.469 361.634 766.114 363.99 766.114 366.896C766.114 369.802 768.469 372.158 771.375 372.158Z" fill="#EEE3D1"/>
    <path d="M786.28 372.158C789.186 372.158 791.541 369.802 791.541 366.896C791.541 363.99 789.186 361.634 786.28 361.634C783.375 361.634 781.02 363.99 781.02 366.896C781.02 369.802 783.375 372.158 786.28 372.158Z" fill="#FE926B"/>
    <path d="M800.309 372.158C803.214 372.158 805.57 369.802 805.57 366.896C805.57 363.99 803.214 361.634 800.309 361.634C797.403 361.634 795.048 363.99 795.048 366.896C795.048 369.802 797.403 372.158 800.309 372.158Z" fill="#C04365"/>
    <path d="M619.383 537.558L644.525 536.484L635.231 560.382L619.383 537.558Z" fill="#2CA28C"/>
    <path d="M896.734 684.476L880.93 664.875L905.678 658.188L896.734 684.476Z" fill="#2CA28C"/>
    <path d="M769.336 916.879L781.327 894.757L797.043 915.015L769.336 916.879Z" fill="#2CA28C"/>
    <path d="M435.102 959.589L458.469 968.929L440.188 986.885L435.102 959.589Z" fill="#2CA28C"/>
    <path d="M388.808 651.436L412.174 660.776L393.893 678.732L388.808 651.436Z" fill="#2CA28C"/>
    <path d="M465.22 376.477L471.314 352.053L491.59 367.751L465.22 376.477Z" fill="#2CA28C"/>
    <path d="M921.263 483.47L927.378 459.046L947.632 474.744L921.263 483.47Z" fill="#2CA28C"/>
    <path d="M1036.12 999.141L1042.24 974.717L1062.51 990.415L1036.12 999.141Z" fill="#2CA28C"/>
    <path d="M724.138 597.303C722.866 599.649 721.135 601.688 719.184 603.508C718.066 602.149 717.036 600.68 716.444 599.123C714.646 594.409 707.018 596.448 708.838 601.228C710.35 605.174 713.068 608.726 715.983 611.752C717.101 612.892 719.403 613.418 720.762 612.366C724.773 609.274 728.522 605.832 730.955 601.294C733.366 596.821 726.549 592.831 724.138 597.303Z" fill="#2CA28C"/>
    <path d="M527.012 708.528C525.741 710.874 524.009 712.913 522.058 714.733C520.94 713.373 519.91 711.904 519.318 710.348C517.521 705.634 509.893 707.673 511.712 712.452C513.225 716.399 515.943 719.951 518.858 722.976C519.976 724.116 522.278 724.643 523.637 723.59C527.648 720.499 531.396 717.057 533.829 712.518C536.241 708.045 529.424 704.055 527.012 708.528Z" fill="#2CA28C"/>
    <path d="M390.233 1033.89C388.961 1036.24 387.229 1038.28 385.279 1040.1C384.161 1038.74 383.13 1037.27 382.539 1035.71C380.741 1031 373.113 1033.04 374.932 1037.82C376.445 1041.76 379.163 1045.31 382.078 1048.34C383.196 1049.48 385.498 1050.01 386.857 1048.95C390.868 1045.86 394.617 1042.42 397.05 1037.88C399.461 1033.41 392.644 1029.42 390.233 1033.89Z" fill="#2CA28C"/>
    <path d="M915.739 1043.01C914.468 1045.36 912.736 1047.4 910.785 1049.22C909.667 1047.86 908.637 1046.39 908.045 1044.83C906.248 1040.12 898.619 1042.16 900.439 1046.94C901.951 1050.88 904.669 1054.44 907.585 1057.46C908.703 1058.6 911.004 1059.13 912.363 1058.07C916.375 1054.98 920.123 1051.54 922.556 1047C924.967 1042.53 918.15 1038.54 915.739 1043.01Z" fill="#2CA28C"/>
    <path d="M1070.05 551.897C1068.78 554.243 1067.05 556.282 1065.1 558.102C1063.98 556.742 1062.95 555.273 1062.36 553.717C1060.56 549.003 1052.94 551.042 1054.75 555.822C1056.27 559.768 1058.99 563.32 1061.9 566.346C1063.02 567.486 1065.32 568.012 1066.68 566.959C1070.69 563.868 1074.44 560.426 1076.87 555.887C1079.28 551.415 1072.47 547.424 1070.05 551.897Z" fill="#2CA28C"/>
    <path d="M860.501 514.186C859.23 516.532 857.498 518.571 855.547 520.391C854.429 519.032 853.399 517.563 852.807 516.006C851.01 511.292 843.381 513.331 845.201 518.111C846.713 522.057 849.431 525.609 852.347 528.635C853.465 529.775 855.766 530.301 857.125 529.249C861.137 526.157 864.885 522.715 867.318 518.177C869.729 513.704 862.912 509.714 860.501 514.186Z" fill="#FE926B"/>
    <path d="M549.239 442.273C547.968 444.619 546.236 446.658 544.285 448.478C543.167 447.118 542.137 445.65 541.545 444.093C539.748 439.379 532.12 441.418 533.939 446.198C535.452 450.144 538.17 453.696 541.085 456.722C542.203 457.862 544.504 458.388 545.863 457.335C549.875 454.244 553.623 450.802 556.056 446.263C558.467 441.791 551.65 437.8 549.239 442.273Z" fill="#FE926B"/>
    <path d="M695.664 804.471C694.392 806.817 692.661 808.856 690.71 810.675C689.592 809.316 688.562 807.847 687.97 806.29C686.172 801.577 678.544 803.616 680.364 808.395C681.876 812.342 684.594 815.893 687.509 818.919C688.627 820.059 690.929 820.585 692.288 819.533C696.299 816.442 700.048 812.999 702.481 808.461C704.892 803.988 698.075 799.998 695.664 804.471Z" fill="#FE926B"/>
    <path d="M1067.42 359.836C1066.15 362.182 1064.42 364.221 1062.47 366.04C1061.35 364.681 1060.32 363.212 1059.73 361.656C1057.93 356.942 1050.3 358.981 1052.12 363.76C1053.64 367.707 1056.35 371.259 1059.27 374.284C1060.39 375.424 1062.69 375.951 1064.05 374.898C1068.06 371.807 1071.81 368.365 1074.24 363.826C1076.65 359.353 1069.84 355.363 1067.42 359.836Z" fill="#FE926B"/>
    <path d="M389.663 354.574C388.391 356.92 386.66 358.959 384.709 360.779C383.591 359.419 382.561 357.95 381.969 356.394C380.171 351.68 372.543 353.719 374.363 358.498C375.875 362.445 378.593 365.997 381.508 369.022C382.626 370.162 384.928 370.689 386.287 369.636C390.298 366.545 394.047 363.103 396.48 358.564C398.891 354.092 392.074 350.101 389.663 354.574Z" fill="#FE926B"/>
    <path d="M384.402 806.225C383.13 808.571 381.399 810.61 379.448 812.429C378.33 811.07 377.3 809.601 376.708 808.044C374.911 803.331 367.282 805.37 369.102 810.149C370.614 814.096 373.332 817.648 376.248 820.673C377.366 821.813 379.667 822.339 381.026 821.287C385.037 818.196 388.786 814.753 391.219 810.215C393.63 805.742 386.813 801.752 384.402 806.225Z" fill="#FE926B"/>
    <path d="M877.16 748.343C875.889 750.689 874.157 752.728 872.206 754.548C871.088 753.189 870.058 751.72 869.466 750.163C867.669 745.449 860.041 747.488 861.86 752.268C863.372 756.214 866.09 759.766 869.006 762.792C870.124 763.932 872.425 764.458 873.784 763.406C877.796 760.314 881.544 756.872 883.977 752.334C886.388 747.861 879.571 743.87 877.16 748.343Z" fill="#C04365"/>
    <path d="M568.704 967.503C567.433 969.849 565.701 971.888 563.75 973.708C562.632 972.349 561.602 970.88 561.01 969.323C559.213 964.609 551.585 966.648 553.404 971.428C554.916 975.374 557.634 978.926 560.55 981.952C561.668 983.092 563.969 983.618 565.328 982.566C569.34 979.474 573.088 976.032 575.521 971.494C577.932 967.021 571.115 963.031 568.704 967.503Z" fill="#C04365"/>
    <path d="M680.933 450.955C679.662 453.301 677.93 455.34 675.98 457.16C674.862 455.801 673.831 454.332 673.24 452.775C671.442 448.061 663.814 450.1 665.633 454.88C667.146 458.826 669.864 462.378 672.779 465.404C673.897 466.544 676.199 467.07 677.558 466.018C681.569 462.926 685.318 459.484 687.751 454.946C690.162 450.473 683.345 446.483 680.933 450.955Z" fill="#C04365"/>
    <path d="M512.414 615.04C511.142 617.386 509.411 619.425 507.46 621.245C506.342 619.886 505.312 618.417 504.72 616.86C502.923 612.146 495.294 614.185 497.114 618.965C498.626 622.911 501.344 626.463 504.26 629.489C505.377 630.629 507.679 631.155 509.038 630.103C513.049 627.011 516.798 623.569 519.231 619.031C521.642 614.558 514.825 610.568 512.414 615.04Z" fill="#EEE3D1"/>
    <path d="M892.942 877.261C891.671 879.607 889.939 881.646 887.988 883.466C886.871 882.106 885.84 880.637 885.248 879.081C883.451 874.367 875.823 876.406 877.642 881.185C879.155 885.132 881.873 888.684 884.788 891.709C885.906 892.849 888.208 893.376 889.567 892.323C893.578 889.232 897.326 885.79 899.759 881.251C902.171 876.779 895.354 872.788 892.942 877.261Z" fill="#EEE3D1"/>
    <path d="M1055.15 680.815C1053.88 683.161 1052.15 685.2 1050.2 687.019C1049.08 685.66 1048.05 684.191 1047.46 682.635C1045.66 677.921 1038.03 679.96 1039.85 684.739C1041.36 688.686 1044.08 692.238 1047 695.263C1048.11 696.403 1050.41 696.93 1051.77 695.877C1055.79 692.786 1059.53 689.344 1061.97 684.805C1064.38 680.332 1057.56 676.342 1055.15 680.815Z" fill="#EEE3D1"/>
    <path d="M564.145 359.836C562.873 362.182 561.141 364.221 559.191 366.04C558.073 364.681 557.042 363.212 556.451 361.656C554.653 356.942 547.025 358.981 548.844 363.76C550.357 367.707 553.075 371.259 555.99 374.284C557.108 375.424 559.41 375.951 560.769 374.898C564.78 371.807 568.529 368.365 570.962 363.826C573.373 359.353 566.556 355.363 564.145 359.836Z" fill="#EEE3D1"/>
    <path d="M913.985 364.221C912.714 366.567 910.982 368.606 909.031 370.425C907.914 369.066 906.883 367.597 906.292 366.04C904.494 361.327 896.866 363.366 898.685 368.145C900.198 372.092 902.916 375.644 905.831 378.669C906.949 379.809 909.251 380.336 910.61 379.283C914.621 376.192 918.369 372.75 920.802 368.211C923.214 363.738 916.397 359.748 913.985 364.221Z" fill="#EEE3D1"/>
    <path d="M704.432 966.714C703.16 969.06 701.429 971.099 699.478 972.919C698.36 971.559 697.33 970.091 696.738 968.534C694.94 963.82 687.312 965.859 689.131 970.639C690.644 974.585 693.362 978.137 696.277 981.163C697.395 982.303 699.697 982.829 701.056 981.776C705.067 978.685 708.816 975.243 711.249 970.704C713.66 966.232 706.843 962.241 704.432 966.714Z" fill="#EEE3D1"/>
    <path d="M315.31 852.091L290.563 827.338L315.31 802.585L340.058 827.338L315.31 852.091ZM298.761 827.338L315.31 843.891L331.86 827.338L315.31 810.785L298.761 827.338Z" fill="#C04365"/>
    <path d="M110.952 1029.24L86.2043 1004.49L110.952 979.737L135.699 1004.49L110.952 1029.24ZM94.4021 1004.49L110.952 1021.04L127.501 1004.49L110.952 987.937L94.4021 1004.49Z" fill="#2CA28C"/>
    <path d="M305.03 426.75L280.283 401.997L305.03 377.244L329.777 401.997L305.03 426.75ZM288.481 401.997L305.03 418.55L321.579 401.997L305.03 385.444L288.481 401.997Z" fill="#2CA28C"/>
    <path d="M113.67 631.747L88.9222 606.994L113.67 582.241L138.417 606.994L113.67 631.747ZM97.1202 606.994L113.67 623.547L130.219 606.994L113.67 590.441L97.1202 606.994Z" fill="#EEE3D1"/>
    <path d="M168.163 830.934H141.617C139.754 830.934 138.22 828.719 138.22 826.001C138.22 823.282 139.732 821.068 141.617 821.068H168.163C170.026 821.068 171.56 823.282 171.56 826.001C171.56 828.719 170.048 830.934 168.163 830.934Z" fill="#FE926B"/>
    <path d="M322.478 495.923H295.933C294.07 495.923 292.536 493.709 292.536 490.99C292.536 488.271 294.048 486.057 295.933 486.057H322.478C324.341 486.057 325.876 488.271 325.876 490.99C325.876 493.709 324.363 495.923 322.478 495.923Z" fill="#FE926B"/>
    <path d="M197.973 424.01H171.428C169.565 424.01 168.031 421.795 168.031 419.077C168.031 416.358 169.543 414.143 171.428 414.143H197.973C199.837 414.143 201.371 416.358 201.371 419.077C201.371 421.795 199.858 424.01 197.973 424.01Z" fill="#2CA28C"/>
    <path d="M308.45 739.727H281.905C280.041 739.727 278.507 737.512 278.507 734.794C278.507 732.075 280.019 729.861 281.905 729.861H308.45C310.313 729.861 311.847 732.075 311.847 734.794C311.847 737.512 310.335 739.727 308.45 739.727Z" fill="#C04365"/>
    <path d="M264.61 1012.47H238.065C236.202 1012.47 234.667 1010.26 234.667 1007.54C234.667 1004.82 236.18 1002.6 238.065 1002.6H264.61C266.473 1002.6 268.007 1004.82 268.007 1007.54C268.007 1010.26 266.495 1012.47 264.61 1012.47Z" fill="#EEE3D1"/>
    <path d="M49.6637 734.355C52.5692 734.355 54.9246 731.999 54.9246 729.093C54.9246 726.187 52.5692 723.831 49.6637 723.831C46.7583 723.831 44.403 726.187 44.403 729.093C44.403 731.999 46.7583 734.355 49.6637 734.355Z" fill="#EEE3D1"/>
    <path d="M64.5692 734.355C67.4747 734.355 69.8299 731.999 69.8299 729.093C69.8299 726.187 67.4747 723.831 64.5692 723.831C61.6638 723.831 59.3085 726.187 59.3085 729.093C59.3085 731.999 61.6638 734.355 64.5692 734.355Z" fill="#FE926B"/>
    <path d="M78.5981 734.355C81.5035 734.355 83.8588 731.999 83.8588 729.093C83.8588 726.187 81.5035 723.831 78.5981 723.831C75.6926 723.831 73.3372 726.187 73.3372 729.093C73.3372 731.999 75.6926 734.355 78.5981 734.355Z" fill="#C04365"/>
    <path d="M25.9904 494.936C28.8959 494.936 31.2511 492.581 31.2511 489.674C31.2511 486.768 28.8959 484.412 25.9904 484.412C23.085 484.412 20.7297 486.768 20.7297 489.674C20.7297 492.581 23.085 494.936 25.9904 494.936Z" fill="#EEE3D1"/>
    <path d="M40.8959 494.936C43.8014 494.936 46.1566 492.581 46.1566 489.674C46.1566 486.768 43.8014 484.412 40.8959 484.412C37.9905 484.412 35.635 486.768 35.635 489.674C35.635 492.581 37.9905 494.936 40.8959 494.936Z" fill="#FE926B"/>
    <path d="M54.9246 494.936C57.83 494.936 60.1853 492.581 60.1853 489.674C60.1853 486.768 57.83 484.412 54.9246 484.412C52.0192 484.412 49.6639 486.768 49.6639 489.674C49.6639 492.581 52.0192 494.936 54.9246 494.936Z" fill="#C04365"/>
    <path d="M264.478 615.084C267.384 615.084 269.739 612.728 269.739 609.822C269.739 606.916 267.384 604.56 264.478 604.56C261.573 604.56 259.218 606.916 259.218 609.822C259.218 612.728 261.573 615.084 264.478 615.084Z" fill="#EEE3D1"/>
    <path d="M279.384 615.084C282.289 615.084 284.645 612.728 284.645 609.822C284.645 606.916 282.289 604.56 279.384 604.56C276.478 604.56 274.123 606.916 274.123 609.822C274.123 612.728 276.478 615.084 279.384 615.084Z" fill="#FE926B"/>
    <path d="M293.412 615.084C296.318 615.084 298.673 612.728 298.673 609.822C298.673 606.916 296.318 604.56 293.412 604.56C290.507 604.56 288.152 606.916 288.152 609.822C288.152 612.728 290.507 615.084 293.412 615.084Z" fill="#C04365"/>
    <path d="M252.203 930.801C255.109 930.801 257.464 928.445 257.464 925.539C257.464 922.633 255.109 920.277 252.203 920.277C249.298 920.277 246.942 922.633 246.942 925.539C246.942 928.445 249.298 930.801 252.203 930.801Z" fill="#EEE3D1"/>
    <path d="M267.109 930.801C270.014 930.801 272.37 928.445 272.37 925.539C272.37 922.633 270.014 920.277 267.109 920.277C264.203 920.277 261.848 922.633 261.848 925.539C261.848 928.445 264.203 930.801 267.109 930.801Z" fill="#FE926B"/>
    <path d="M281.137 930.801C284.043 930.801 286.398 928.445 286.398 925.539C286.398 922.633 284.043 920.277 281.137 920.277C278.232 920.277 275.877 922.633 275.877 925.539C275.877 928.445 278.232 930.801 281.137 930.801Z" fill="#C04365"/>
    <path d="M62.8158 372.158C65.7212 372.158 68.0765 369.802 68.0765 366.896C68.0765 363.99 65.7212 361.634 62.8158 361.634C59.9103 361.634 57.5549 363.99 57.5549 366.896C57.5549 369.802 59.9103 372.158 62.8158 372.158Z" fill="#EEE3D1"/>
    <path d="M77.7211 372.158C80.6265 372.158 82.982 369.802 82.982 366.896C82.982 363.99 80.6265 361.634 77.7211 361.634C74.8157 361.634 72.4604 363.99 72.4604 366.896C72.4604 369.802 74.8157 372.158 77.7211 372.158Z" fill="#FE926B"/>
    <path d="M91.75 372.158C94.6554 372.158 97.0107 369.802 97.0107 366.896C97.0107 363.99 94.6554 361.634 91.75 361.634C88.8445 361.634 86.4892 363.99 86.4892 366.896C86.4892 369.802 88.8445 372.158 91.75 372.158Z" fill="#C04365"/>
    <path d="M188.175 684.476L172.371 664.875L197.119 658.188L188.175 684.476Z" fill="#2CA28C"/>
    <path d="M60.7772 916.879L72.7673 894.757L88.4839 915.015L60.7772 916.879Z" fill="#2CA28C"/>
    <path d="M212.726 483.47L218.819 459.046L239.095 474.744L212.726 483.47Z" fill="#2CA28C"/>
    <path d="M327.586 999.141L333.679 974.717L353.955 990.415L327.586 999.141Z" fill="#2CA28C"/>
    <path d="M15.5785 597.303C14.3071 599.649 12.5753 601.688 10.6245 603.508C9.50657 602.149 8.47633 600.68 7.8845 599.123C6.08707 594.409 -1.54104 596.448 0.278308 601.228C1.79078 605.174 4.50893 608.726 7.42427 611.752C8.54218 612.892 10.8436 613.418 12.2027 612.366C16.214 609.274 19.9624 605.832 22.3955 601.294C24.8067 596.821 17.9897 592.831 15.5785 597.303Z" fill="#2CA28C"/>
    <path d="M207.18 1043.01C205.908 1045.36 204.177 1047.4 202.226 1049.22C201.108 1047.86 200.078 1046.39 199.486 1044.83C197.688 1040.12 190.06 1042.16 191.88 1046.94C193.392 1050.88 196.11 1054.44 199.026 1057.46C200.144 1058.6 202.445 1059.13 203.804 1058.07C207.816 1054.98 211.564 1051.54 213.997 1047C216.408 1042.53 209.591 1038.54 207.18 1043.01Z" fill="#2CA28C"/>
    <path d="M361.496 551.897C360.224 554.243 358.493 556.282 356.542 558.102C355.424 556.742 354.394 555.273 353.802 553.717C352.004 549.003 344.376 551.042 346.196 555.822C347.708 559.768 350.426 563.32 353.341 566.345C354.459 567.486 356.761 568.012 358.12 566.959C362.131 563.868 365.879 560.426 368.313 555.887C370.724 551.415 363.907 547.424 361.496 551.897Z" fill="#2CA28C"/>
    <path d="M151.942 514.186C150.67 516.532 148.939 518.571 146.988 520.391C145.87 519.032 144.84 517.563 144.248 516.006C142.45 511.292 134.822 513.331 136.642 518.111C138.154 522.057 140.872 525.609 143.788 528.635C144.905 529.775 147.207 530.301 148.566 529.249C152.577 526.157 156.326 522.715 158.759 518.177C161.17 513.704 154.353 509.714 151.942 514.186Z" fill="#FE926B"/>
    <path d="M358.865 359.836C357.594 362.182 355.862 364.221 353.911 366.04C352.793 364.681 351.763 363.212 351.171 361.656C349.374 356.942 341.746 358.981 343.565 363.76C345.078 367.707 347.796 371.259 350.711 374.284C351.829 375.424 354.13 375.951 355.49 374.898C359.501 371.807 363.249 368.365 365.682 363.826C368.093 359.353 361.276 355.363 358.865 359.836Z" fill="#FE926B"/>
    <path d="M168.601 748.343C167.33 750.689 165.598 752.728 163.647 754.548C162.529 753.189 161.499 751.72 160.907 750.163C159.11 745.449 151.482 747.488 153.301 752.268C154.813 756.214 157.531 759.766 160.447 762.792C161.565 763.932 163.866 764.458 165.225 763.406C169.237 760.314 172.985 756.872 175.418 752.333C177.829 747.861 171.012 743.87 168.601 748.343Z" fill="#C04365"/>
    <path d="M184.383 877.261C183.112 879.607 181.38 881.646 179.429 883.466C178.311 882.106 177.281 880.637 176.689 879.081C174.892 874.367 167.264 876.406 169.083 881.185C170.596 885.132 173.314 888.684 176.229 891.709C177.347 892.849 179.648 893.376 181.008 892.323C185.019 889.232 188.767 885.79 191.2 881.251C193.612 876.779 186.794 872.788 184.383 877.261Z" fill="#EEE3D1"/>
    <path d="M346.59 680.815C345.319 683.161 343.587 685.2 341.636 687.019C340.518 685.66 339.488 684.191 338.896 682.634C337.099 677.921 329.471 679.96 331.29 684.739C332.803 688.686 335.521 692.238 338.436 695.263C339.554 696.403 341.855 696.929 343.214 695.877C347.226 692.786 350.974 689.344 353.407 684.805C355.818 680.332 349.001 676.342 346.59 680.815Z" fill="#EEE3D1"/>
    <path d="M205.426 364.221C204.155 366.567 202.423 368.606 200.472 370.425C199.354 369.066 198.324 367.597 197.732 366.04C195.935 361.327 188.307 363.366 190.126 368.145C191.639 372.092 194.357 375.644 197.272 378.669C198.39 379.809 200.692 380.336 202.051 379.283C206.062 376.192 209.81 372.75 212.243 368.211C214.654 363.738 207.837 359.748 205.426 364.221Z" fill="#EEE3D1"/>
    <path d="M1378.16 145.521L1353.41 120.768L1378.16 96.0148L1402.91 120.768L1378.16 145.521ZM1361.61 120.768L1378.16 137.321L1394.71 120.768L1378.16 104.215L1361.61 120.768Z" fill="#C04365"/>
    <path d="M1173.78 322.673L1149.03 297.92L1173.78 273.167L1198.53 297.92L1173.78 322.673ZM1157.23 297.92L1173.78 314.473L1190.33 297.92L1173.78 281.367L1157.23 297.92Z" fill="#2CA28C"/>
    <path d="M794.128 198.14L769.38 173.387L794.128 148.634L818.875 173.387L794.128 198.14ZM777.578 173.387L794.128 189.941L810.677 173.387L794.128 156.834L777.578 173.387Z" fill="#FE926B"/>
    <path d="M1230.99 124.364H1204.45C1202.58 124.364 1201.05 122.149 1201.05 119.43C1201.05 116.712 1202.56 114.497 1204.45 114.497H1230.99C1232.85 114.497 1234.39 116.712 1234.39 119.43C1234.39 122.149 1232.88 124.364 1230.99 124.364Z" fill="#FE926B"/>
    <path d="M1371.28 33.1564H1344.73C1342.87 33.1564 1341.33 30.942 1341.33 28.2233C1341.33 25.5047 1342.85 23.2902 1344.73 23.2902H1371.28C1373.14 23.2902 1374.67 25.5047 1374.67 28.2233C1374.67 30.942 1373.16 33.1564 1371.28 33.1564Z" fill="#C04365"/>
    <path d="M1018.81 206.801H992.261C990.398 206.801 988.864 204.586 988.864 201.868C988.864 199.149 990.376 196.935 992.261 196.935H1018.81C1020.67 196.935 1022.2 199.149 1022.2 201.868C1022.2 204.586 1020.69 206.801 1018.81 206.801Z" fill="#C04365"/>
    <path d="M842.57 340.104H816.026C814.162 340.104 812.628 337.889 812.628 335.17C812.628 332.452 814.14 330.237 816.026 330.237H842.57C844.434 330.237 845.968 332.452 845.968 335.17C845.968 337.889 844.456 340.104 842.57 340.104Z" fill="#2CA28C"/>
    <path d="M777.688 23.5096H751.143C749.28 23.5096 747.745 21.2952 747.745 18.5765C747.745 15.8578 749.258 13.6434 751.143 13.6434H777.688C779.551 13.6434 781.085 15.8578 781.085 18.5765C781.085 21.2952 779.573 23.5096 777.688 23.5096Z" fill="#2CA28C"/>
    <path d="M1011.79 43.6803H985.247C983.384 43.6803 981.849 41.4659 981.849 38.7472C981.849 36.0286 983.362 33.8141 985.247 33.8141H1011.79C1013.65 33.8141 1015.19 36.0286 1015.19 38.7472C1015.19 41.4659 1013.68 43.6803 1011.79 43.6803Z" fill="#EEE3D1"/>
    <path d="M1327.44 305.901H1300.89C1299.03 305.901 1297.49 303.686 1297.49 300.968C1297.49 298.249 1299.01 296.035 1300.89 296.035H1327.44C1329.3 296.035 1330.83 298.249 1330.83 300.968C1330.83 303.686 1329.32 305.901 1327.44 305.901Z" fill="#EEE3D1"/>
    <path d="M1112.49 27.7848C1115.4 27.7848 1117.75 25.429 1117.75 22.5229C1117.75 19.6168 1115.4 17.261 1112.49 17.261C1109.59 17.261 1107.23 19.6168 1107.23 22.5229C1107.23 25.429 1109.59 27.7848 1112.49 27.7848Z" fill="#EEE3D1"/>
    <path d="M1127.4 27.7848C1130.3 27.7848 1132.66 25.429 1132.66 22.5229C1132.66 19.6168 1130.3 17.261 1127.4 17.261C1124.49 17.261 1122.14 19.6168 1122.14 22.5229C1122.14 25.429 1124.49 27.7848 1127.4 27.7848Z" fill="#FE926B"/>
    <path d="M1141.43 27.7848C1144.33 27.7848 1146.69 25.429 1146.69 22.5229C1146.69 19.6168 1144.33 17.261 1141.43 17.261C1138.52 17.261 1136.16 19.6168 1136.16 22.5229C1136.16 25.429 1138.52 27.7848 1141.43 27.7848Z" fill="#C04365"/>
    <path d="M1315.03 224.231C1317.94 224.231 1320.29 221.875 1320.29 218.969C1320.29 216.063 1317.94 213.707 1315.03 213.707C1312.13 213.707 1309.77 216.063 1309.77 218.969C1309.77 221.875 1312.13 224.231 1315.03 224.231Z" fill="#EEE3D1"/>
    <path d="M1329.94 224.231C1332.84 224.231 1335.2 221.875 1335.2 218.969C1335.2 216.063 1332.84 213.707 1329.94 213.707C1327.03 213.707 1324.68 216.063 1324.68 218.969C1324.68 221.875 1327.03 224.231 1329.94 224.231Z" fill="#FE926B"/>
    <path d="M1343.96 224.231C1346.87 224.231 1349.23 221.875 1349.23 218.969C1349.23 216.063 1346.87 213.707 1343.96 213.707C1341.06 213.707 1338.7 216.063 1338.7 218.969C1338.7 221.875 1341.06 224.231 1343.96 224.231Z" fill="#C04365"/>
    <path d="M1000.26 339.117C1003.17 339.117 1005.52 336.761 1005.52 333.855C1005.52 330.949 1003.17 328.593 1000.26 328.593C997.356 328.593 995.001 330.949 995.001 333.855C995.001 336.761 997.356 339.117 1000.26 339.117Z" fill="#EEE3D1"/>
    <path d="M1015.17 339.117C1018.07 339.117 1020.43 336.761 1020.43 333.855C1020.43 330.949 1018.07 328.593 1015.17 328.593C1012.26 328.593 1009.91 330.949 1009.91 333.855C1009.91 336.761 1012.26 339.117 1015.17 339.117Z" fill="#FE926B"/>
    <path d="M1029.2 339.117C1032.1 339.117 1034.46 336.761 1034.46 333.855C1034.46 330.949 1032.1 328.593 1029.2 328.593C1026.29 328.593 1023.94 330.949 1023.94 333.855C1023.94 336.761 1026.29 339.117 1029.2 339.117Z" fill="#C04365"/>
    <path d="M857.344 114.607C860.25 114.607 862.605 112.251 862.605 109.345C862.605 106.439 860.25 104.083 857.344 104.083C854.439 104.083 852.084 106.439 852.084 109.345C852.084 112.251 854.439 114.607 857.344 114.607Z" fill="#EEE3D1"/>
    <path d="M872.25 114.607C875.155 114.607 877.511 112.251 877.511 109.345C877.511 106.439 875.155 104.083 872.25 104.083C869.344 104.083 866.989 106.439 866.989 109.345C866.989 112.251 869.344 114.607 872.25 114.607Z" fill="#FE926B"/>
    <path d="M886.279 114.607C889.184 114.607 891.539 112.251 891.539 109.345C891.539 106.439 889.184 104.083 886.279 104.083C883.373 104.083 881.018 106.439 881.018 109.345C881.018 112.251 883.373 114.607 886.279 114.607Z" fill="#C04365"/>
    <path d="M1123.6 210.309L1135.59 188.187L1151.31 208.445L1123.6 210.309Z" fill="#2CA28C"/>
    <path d="M789.371 253.018L812.737 262.358L794.456 280.315L789.371 253.018Z" fill="#2CA28C"/>
    <path d="M1390.41 292.571L1396.51 268.146L1416.78 283.845L1390.41 292.571Z" fill="#2CA28C"/>
    <path d="M881.281 1.95746C880.009 4.30341 878.278 6.34241 876.327 8.16217C875.209 6.80284 874.179 5.33388 873.587 3.77722C871.79 -0.936612 864.161 1.10239 865.981 5.88199C867.493 9.82845 870.211 13.3803 873.127 16.4059C874.245 17.5679 876.546 18.0722 877.905 17.0198C881.917 13.9284 885.665 10.4862 888.098 5.94776C890.509 1.4751 883.692 -2.5152 881.281 1.95746Z" fill="#2CA28C"/>
    <path d="M744.501 327.321C743.23 329.667 741.498 331.706 739.547 333.526C738.429 332.167 737.399 330.698 736.807 329.141C735.01 324.427 727.382 326.466 729.201 331.246C730.714 335.192 733.431 338.744 736.347 341.77C737.465 342.932 739.766 343.436 741.125 342.384C745.137 339.292 748.885 335.85 751.318 331.312C753.729 326.839 746.912 322.849 744.501 327.321Z" fill="#2CA28C"/>
    <path d="M1270.01 336.442C1268.74 338.788 1267 340.827 1265.05 342.647C1263.94 341.287 1262.91 339.819 1262.31 338.262C1260.52 333.548 1252.89 335.587 1254.71 340.367C1256.22 344.313 1258.94 347.865 1261.85 350.891C1262.97 352.031 1265.27 352.557 1266.63 351.504C1270.64 348.413 1274.39 344.971 1276.82 340.432C1279.24 335.96 1272.42 331.969 1270.01 336.442Z" fill="#2CA28C"/>
    <path d="M1049.93 97.9003C1048.66 100.246 1046.93 102.285 1044.98 104.105C1043.86 102.746 1042.83 101.277 1042.24 99.7201C1040.44 95.0063 1032.81 97.0453 1034.63 101.825C1036.14 105.771 1038.86 109.323 1041.78 112.349C1042.9 113.489 1045.2 114.015 1046.56 112.963C1050.57 109.871 1054.32 106.429 1056.75 101.891C1059.16 97.418 1052.34 93.4277 1049.93 97.9003Z" fill="#FE926B"/>
    <path d="M738.67 99.6543C737.399 102 735.667 104.039 733.717 105.859C732.599 104.5 731.568 103.031 730.977 101.474C729.179 96.7602 721.551 98.7992 723.37 103.579C724.883 107.525 727.601 111.077 730.516 114.103C731.634 115.243 733.936 115.769 735.295 114.717C739.306 111.625 743.054 108.183 745.488 103.645C747.899 99.172 741.082 95.1816 738.67 99.6543Z" fill="#FE926B"/>
    <path d="M1231.43 41.7728C1230.16 44.1188 1228.43 46.1577 1226.47 47.9775C1225.36 46.6182 1224.33 45.1492 1223.73 43.5925C1221.94 38.8787 1214.31 40.9177 1216.13 45.6973C1217.64 49.6438 1220.36 53.1956 1223.27 56.2212C1224.39 57.3613 1226.69 57.8875 1228.05 56.8351C1232.06 53.7437 1235.81 50.3015 1238.25 45.7631C1240.66 41.2904 1233.84 37.3001 1231.43 41.7728Z" fill="#C04365"/>
    <path d="M922.973 260.933C921.701 263.279 919.969 265.318 918.019 267.138C916.901 265.778 915.87 264.309 915.279 262.753C913.481 258.039 905.853 260.078 907.672 264.858C909.185 268.804 911.903 272.356 914.818 275.382C915.936 276.522 918.238 277.048 919.597 275.995C923.608 272.904 927.356 269.462 929.79 264.923C932.201 260.451 925.384 256.46 922.973 260.933Z" fill="#C04365"/>
    <path d="M1247.21 170.691C1245.94 173.037 1244.21 175.076 1242.26 176.895C1241.14 175.536 1240.11 174.067 1239.52 172.51C1237.72 167.797 1230.09 169.836 1231.91 174.615C1233.42 178.562 1236.14 182.113 1239.06 185.139C1240.17 186.279 1242.48 186.805 1243.84 185.753C1247.85 182.662 1251.59 179.219 1254.03 174.681C1256.44 170.208 1249.62 166.218 1247.21 170.691Z" fill="#EEE3D1"/>
    <path d="M1058.7 260.144C1057.43 262.49 1055.7 264.529 1053.75 266.349C1052.63 264.989 1051.6 263.52 1051.01 261.964C1049.21 257.25 1041.58 259.289 1043.4 264.068C1044.91 268.015 1047.63 271.567 1050.55 274.592C1051.66 275.732 1053.97 276.259 1055.32 275.206C1059.34 272.115 1063.08 268.673 1065.52 264.134C1067.93 259.661 1061.11 255.671 1058.7 260.144Z" fill="#EEE3D1"/>
    <path d="M669.601 145.521L644.853 120.768L669.601 96.0148L694.348 120.768L669.601 145.521ZM653.051 120.768L669.601 137.321L686.15 120.768L669.601 104.215L653.051 120.768Z" fill="#C04365"/>
    <path d="M465.22 322.673L440.473 297.92L465.22 273.167L489.968 297.92L465.22 322.673ZM448.671 297.92L465.22 314.473L481.77 297.92L465.22 281.367L448.671 297.92Z" fill="#2CA28C"/>
    <path d="M85.5684 198.14L60.821 173.387L85.5684 148.634L110.316 173.387L85.5684 198.14ZM69.019 173.387L85.5684 189.941L102.118 173.387L85.5684 156.834L69.019 173.387Z" fill="#FE926B"/>
    <path d="M522.431 124.364H495.886C494.023 124.364 492.489 122.149 492.489 119.43C492.489 116.712 494.001 114.497 495.886 114.497H522.431C524.294 114.497 525.829 116.712 525.829 119.43C525.829 122.149 524.316 124.364 522.431 124.364Z" fill="#FE926B"/>
    <path d="M662.718 33.1564H636.173C634.31 33.1564 632.776 30.942 632.776 28.2233C632.776 25.5046 634.288 23.2902 636.173 23.2902H662.718C664.581 23.2902 666.116 25.5046 666.116 28.2233C666.116 30.942 664.603 33.1564 662.718 33.1564Z" fill="#C04365"/>
    <path d="M310.247 206.801H283.702C281.839 206.801 280.304 204.586 280.304 201.868C280.304 199.149 281.817 196.935 283.702 196.935H310.247C312.11 196.935 313.644 199.149 313.644 201.868C313.644 204.586 312.132 206.801 310.247 206.801Z" fill="#C04365"/>
    <path d="M134.011 340.104H107.466C105.603 340.104 104.069 337.889 104.069 335.17C104.069 332.452 105.581 330.237 107.466 330.237H134.011C135.875 330.237 137.409 332.452 137.409 335.17C137.409 337.889 135.897 340.104 134.011 340.104Z" fill="#2CA28C"/>
    <path d="M69.1286 23.5096H42.5837C40.7205 23.5096 39.1861 21.2952 39.1861 18.5765C39.1861 15.8578 40.6986 13.6434 42.5837 13.6434H69.1286C70.9917 13.6434 72.5263 15.8578 72.5263 18.5765C72.5263 21.2952 71.0137 23.5096 69.1286 23.5096Z" fill="#2CA28C"/>
    <path d="M303.233 43.6803H276.688C274.824 43.6803 273.29 41.4659 273.29 38.7472C273.29 36.0286 274.802 33.8141 276.688 33.8141H303.233C305.096 33.8141 306.63 36.0286 306.63 38.7472C306.63 41.4659 305.118 43.6803 303.233 43.6803Z" fill="#EEE3D1"/>
    <path d="M618.878 305.901H592.333C590.47 305.901 588.936 303.686 588.936 300.968C588.936 298.249 590.448 296.035 592.333 296.035H618.878C620.742 296.035 622.276 298.249 622.276 300.968C622.276 303.686 620.763 305.901 618.878 305.901Z" fill="#EEE3D1"/>
    <path d="M403.954 27.7848C406.86 27.7848 409.215 25.429 409.215 22.5229C409.215 19.6168 406.86 17.261 403.954 17.261C401.049 17.261 398.694 19.6168 398.694 22.5229C398.694 25.429 401.049 27.7848 403.954 27.7848Z" fill="#EEE3D1"/>
    <path d="M418.86 27.7848C421.765 27.7848 424.121 25.429 424.121 22.5229C424.121 19.6168 421.765 17.261 418.86 17.261C415.954 17.261 413.599 19.6168 413.599 22.5229C413.599 25.429 415.954 27.7848 418.86 27.7848Z" fill="#FE926B"/>
    <path d="M432.889 27.7848C435.794 27.7848 438.149 25.429 438.149 22.5229C438.149 19.6168 435.794 17.261 432.889 17.261C429.983 17.261 427.628 19.6168 427.628 22.5229C427.628 25.429 429.983 27.7848 432.889 27.7848Z" fill="#C04365"/>
    <path d="M606.494 224.231C609.399 224.231 611.754 221.875 611.754 218.969C611.754 216.063 609.399 213.707 606.494 213.707C603.588 213.707 601.233 216.063 601.233 218.969C601.233 221.875 603.588 224.231 606.494 224.231Z" fill="#EEE3D1"/>
    <path d="M621.399 224.231C624.305 224.231 626.66 221.875 626.66 218.969C626.66 216.063 624.305 213.707 621.399 213.707C618.494 213.707 616.138 216.063 616.138 218.969C616.138 221.875 618.494 224.231 621.399 224.231Z" fill="#FE926B"/>
    <path d="M635.428 224.231C638.333 224.231 640.688 221.875 640.688 218.969C640.688 216.063 638.333 213.707 635.428 213.707C632.522 213.707 630.167 216.063 630.167 218.969C630.167 221.875 632.522 224.231 635.428 224.231Z" fill="#C04365"/>
    <path d="M291.725 339.117C294.63 339.117 296.985 336.761 296.985 333.855C296.985 330.949 294.63 328.593 291.725 328.593C288.819 328.593 286.464 330.949 286.464 333.855C286.464 336.761 288.819 339.117 291.725 339.117Z" fill="#EEE3D1"/>
    <path d="M306.63 339.117C309.536 339.117 311.891 336.761 311.891 333.855C311.891 330.949 309.536 328.593 306.63 328.593C303.725 328.593 301.369 330.949 301.369 333.855C301.369 336.761 303.725 339.117 306.63 339.117Z" fill="#FE926B"/>
    <path d="M320.659 339.117C323.564 339.117 325.92 336.761 325.92 333.855C325.92 330.949 323.564 328.593 320.659 328.593C317.753 328.593 315.398 330.949 315.398 333.855C315.398 336.761 317.753 339.117 320.659 339.117Z" fill="#C04365"/>
    <path d="M148.807 114.607C151.713 114.607 154.068 112.251 154.068 109.345C154.068 106.439 151.713 104.083 148.807 104.083C145.902 104.083 143.547 106.439 143.547 109.345C143.547 112.251 145.902 114.607 148.807 114.607Z" fill="#EEE3D1"/>
    <path d="M163.713 114.607C166.618 114.607 168.973 112.251 168.973 109.345C168.973 106.439 166.618 104.083 163.713 104.083C160.807 104.083 158.452 106.439 158.452 109.345C158.452 112.251 160.807 114.607 163.713 114.607Z" fill="#FE926B"/>
    <path d="M177.741 114.607C180.647 114.607 183.002 112.251 183.002 109.345C183.002 106.439 180.647 104.083 177.741 104.083C174.836 104.083 172.481 106.439 172.481 109.345C172.481 112.251 174.836 114.607 177.741 114.607Z" fill="#C04365"/>
    <path d="M415.046 210.309L427.036 188.187L442.774 208.445L415.046 210.309Z" fill="#2CA28C"/>
    <path d="M80.8338 253.018L104.2 262.358L85.8974 280.315L80.8338 253.018Z" fill="#2CA28C"/>
    <path d="M681.854 292.571L687.97 268.146L708.224 283.845L681.854 292.571Z" fill="#2CA28C"/>
    <path d="M172.722 1.95746C171.451 4.30341 169.719 6.34241 167.768 8.16217C166.65 6.80284 165.62 5.33388 165.028 3.77722C163.231 -0.936612 155.603 1.10239 157.422 5.88199C158.934 9.82845 161.652 13.3803 164.568 16.4059C165.686 17.5679 167.987 18.0722 169.346 17.0198C173.358 13.9284 177.106 10.4862 179.539 5.94776C181.95 1.4751 175.133 -2.5152 172.722 1.95746Z" fill="#2CA28C"/>
    <path d="M35.9419 327.321C34.6706 329.667 32.9389 331.706 30.9881 333.526C29.8702 332.167 28.8399 330.698 28.2481 329.141C26.4507 324.427 18.8225 326.466 20.6419 331.246C22.1543 335.192 24.8724 338.744 27.7877 341.77C28.9056 342.932 31.2072 343.436 32.5663 342.384C36.5776 339.292 40.326 335.85 42.7591 331.312C45.1703 326.839 38.3531 322.849 35.9419 327.321Z" fill="#2CA28C"/>
    <path d="M561.47 336.442C560.199 338.788 558.467 340.827 556.516 342.647C555.398 341.287 554.368 339.819 553.776 338.262C551.979 333.548 544.351 335.587 546.17 340.367C547.683 344.313 550.401 347.865 553.316 350.891C554.434 352.031 556.736 352.557 558.095 351.504C562.106 348.413 565.854 344.971 568.287 340.432C570.699 335.96 563.882 331.969 561.47 336.442Z" fill="#2CA28C"/>
    <path d="M341.373 97.9003C340.102 100.246 338.37 102.285 336.419 104.105C335.301 102.746 334.271 101.277 333.679 99.7201C331.882 95.0063 324.254 97.0453 326.073 101.825C327.586 105.771 330.304 109.323 333.219 112.349C334.337 113.489 336.638 114.015 337.998 112.963C342.009 109.871 345.757 106.429 348.19 101.891C350.601 97.418 343.784 93.4277 341.373 97.9003Z" fill="#FE926B"/>
    <path d="M30.1332 99.6543C28.8618 102 27.1302 104.039 25.1793 105.859C24.0614 104.5 23.0312 103.031 22.4393 101.474C20.6419 96.7602 13.0138 98.7992 14.8331 103.579C16.3456 107.525 19.0638 111.077 21.9791 114.103C23.097 115.243 25.3985 115.769 26.7575 114.717C30.7689 111.625 34.5172 108.183 36.9503 103.645C39.3615 99.172 32.5444 95.1816 30.1332 99.6543Z" fill="#FE926B"/>
    <path d="M522.87 41.7728C521.598 44.1188 519.867 46.1577 517.916 47.9775C516.798 46.6182 515.768 45.1492 515.176 43.5925C513.378 38.8787 505.75 40.9177 507.569 45.6973C509.082 49.6438 511.8 53.1956 514.715 56.2212C515.833 57.3613 518.135 57.8875 519.494 56.8351C523.505 53.7437 527.253 50.3015 529.686 45.7631C532.098 41.2904 525.281 37.3001 522.87 41.7728Z" fill="#C04365"/>
    <path d="M214.413 260.933C213.142 263.279 211.41 265.318 209.459 267.138C208.342 265.778 207.311 264.309 206.719 262.753C204.922 258.039 197.294 260.078 199.113 264.858C200.626 268.804 203.344 272.356 206.259 275.382C207.377 276.522 209.679 277.048 211.038 275.995C215.049 272.904 218.797 269.462 221.23 264.923C223.642 260.451 216.825 256.46 214.413 260.933Z" fill="#C04365"/>
    <path d="M538.652 170.691C537.38 173.037 535.649 175.076 533.698 176.895C532.58 175.536 531.55 174.067 530.958 172.51C529.16 167.797 521.532 169.836 523.352 174.615C524.864 178.562 527.582 182.113 530.498 185.139C531.615 186.279 533.917 186.805 535.276 185.753C539.287 182.662 543.036 179.219 545.469 174.681C547.88 170.208 541.063 166.218 538.652 170.691Z" fill="#EEE3D1"/>
    <path d="M350.163 260.144C348.892 262.49 347.16 264.529 345.209 266.349C344.091 264.989 343.061 263.52 342.469 261.964C340.672 257.25 333.044 259.289 334.863 264.068C336.375 268.015 339.093 271.567 342.009 274.592C343.127 275.732 345.428 276.259 346.787 275.206C350.799 272.115 354.547 268.673 356.98 264.134C359.391 259.661 352.574 255.671 350.163 260.144Z" fill="#EEE3D1"/>
  </g>
</svg>