<svg viewBox="0 0 32 33" fill="none" xmlns="http://www.w3.org/2000/svg">
<g id="alert-triangle">
<path id="Icon" d="M15.9998 11.0296V16.3629M15.9998 21.6962H16.0131M13.7198 4.17624L2.42645 23.0296C2.19361 23.4328 2.07041 23.89 2.0691 24.3556C2.0678 24.8212 2.18844 25.2791 2.41902 25.6836C2.6496 26.0881 2.98208 26.4252 3.38339 26.6614C3.7847 26.8975 4.24085 27.0245 4.70645 27.0296H27.2931C27.7587 27.0245 28.2149 26.8975 28.6162 26.6614C29.0175 26.4252 29.35 26.0881 29.5805 25.6836C29.8111 25.2791 29.9318 24.8212 29.9305 24.3556C29.9292 23.89 29.806 23.4328 29.5731 23.0296L18.2798 4.17624C18.0421 3.78438 17.7074 3.4604 17.308 3.23555C16.9087 3.0107 16.4581 2.89258 15.9998 2.89258C15.5415 2.89258 15.0909 3.0107 14.6915 3.23555C14.2922 3.4604 13.9575 3.78438 13.7198 4.17624Z" stroke="currentColor" stroke-width="2" stroke-linecap="round" stroke-linejoin="round"/>
</g>
</svg>
