<svg width="121" height="125" viewBox="0 0 121 125" fill="none" xmlns="http://www.w3.org/2000/svg">
<g id="Frame 448743">
<g id="36">
<g id="Group 749">
<g id="Group 648">
<path id="Vector" d="M64.0293 108.332C89.3766 108.332 109.933 87.9305 109.933 62.7377C109.933 37.545 89.3766 17.1436 64.0293 17.1436C38.682 17.1436 18.126 37.545 18.126 62.7377C18.126 87.9305 38.682 108.332 64.0293 108.332Z" fill="#EAEEF9"/>
<g id="Group">
<path id="Vector_2" d="M99.1912 56.7871V84.6846C99.1912 90.4804 94.4772 95.1944 88.604 95.1944H39.6096C33.8137 95.1944 29.0997 90.5577 29.0225 84.7619C29.0225 84.6846 29.0225 84.6846 29.0225 84.6073V56.7871C29.0225 56.7098 29.0225 56.7098 29.0225 56.6326C29.0225 56.478 29.0225 56.3234 29.0997 56.1689C29.177 55.937 29.2543 55.7825 29.3316 55.5507L42.4689 30.4352C42.9326 29.4306 43.9372 28.8896 45.0191 28.8896H83.1173C84.1992 28.8896 85.1265 29.4306 85.6674 30.4352L98.8048 55.5507C98.882 55.7052 98.9593 55.937 99.0366 56.1689C99.1911 56.3234 99.1912 56.5553 99.1912 56.7871Z" fill="#D5DDEA"/>
</g>
<g id="Group_2">
<g id="Vector_3" filter="url(#filter0_d_396_7563)">
<path d="M99.1912 56.7872V87.5439C99.1912 91.7942 95.7909 95.1945 91.4633 95.1945H36.7503C32.5 95.1945 29.0225 91.7942 29.0225 87.5439V56.6326C29.0225 56.4781 29.0225 56.3235 29.0997 56.1689H46.7192C49.3467 56.1689 51.5104 58.2555 51.5104 60.9602C51.5104 62.2739 52.0514 63.5104 52.9015 64.3604C53.8288 65.2878 54.9107 65.7515 56.3017 65.7515H71.9892C74.6167 65.7515 76.7804 63.6649 76.7804 60.9602C76.7804 59.6465 77.3214 58.41 78.1715 57.56C79.0988 56.6326 80.1807 56.1689 81.4944 56.1689H99.0366C99.1911 56.3235 99.1912 56.5553 99.1912 56.7872Z" fill="url(#paint0_linear_396_7563)"/>
</g>
</g>
</g>
<path id="Vector_4" d="M108.76 40.9452C110.51 40.9452 111.929 39.5267 111.929 37.7768C111.929 36.0269 110.51 34.6084 108.76 34.6084C107.01 34.6084 105.592 36.0269 105.592 37.7768C105.592 39.5267 107.01 40.9452 108.76 40.9452Z" fill="#EAEEF9"/>
<path id="Vector_5" d="M105.593 30.6674C106.788 30.6674 107.756 29.6987 107.756 28.5036C107.756 27.3086 106.788 26.3398 105.593 26.3398C104.397 26.3398 103.429 27.3086 103.429 28.5036C103.429 29.6987 104.397 30.6674 105.593 30.6674Z" fill="#EAEEF9"/>
<path id="Vector_6" d="M17.9587 37.7768C19.1537 37.7768 20.1225 36.808 20.1225 35.613C20.1225 34.418 19.1537 33.4492 17.9587 33.4492C16.7637 33.4492 15.7949 34.418 15.7949 35.613C15.7949 36.808 16.7637 37.7768 17.9587 37.7768Z" fill="#EAEEF9"/>
<path id="Vector_7" d="M13.0898 85.3807C15.3091 85.3807 17.1082 83.5816 17.1082 81.3622C17.1082 79.1429 15.3091 77.3438 13.0898 77.3438C10.8704 77.3438 9.07129 79.1429 9.07129 81.3622C9.07129 83.5816 10.8704 85.3807 13.0898 85.3807Z" fill="#EAEEF9"/>
</g>
<path id="Vector_8" d="M83.4422 19.5928C84.4508 30.6027 84.9551 33.1241 82.6717 43.0951C81.9291 45.3119 81.1865 47.7398 79.5952 49.4287C77.3675 52.0677 73.3364 53.2289 70.0478 52.3844C66.6532 51.5399 63.895 48.5842 63.2585 44.9952C62.7281 42.7784 63.4707 40.1394 65.3802 38.7672C67.3957 37.5004 70.26 37.8171 71.9573 39.4005C73.8668 40.9839 74.6094 43.4118 74.5033 45.7341C74.3972 48.0564 73.5485 50.3788 72.3816 52.3844C69.7437 57.316 68.6578 57.2979 63.2585 65.3975" stroke="#ABB5CC" stroke-width="1.80316" stroke-miterlimit="10" stroke-dasharray="3.61 3.61"/>
<path id="Vector_9" d="M89.3566 15.4915C88.9534 16.9628 87.3405 17.4978 85.7275 16.5615C83.9802 15.759 82.7705 15.0903 83.0393 13.7528C83.4426 12.4153 85.0555 12.2816 86.9372 12.1478C89.2222 11.8804 89.6254 14.0203 89.3566 15.4915Z" fill="#DAE2EB"/>
<path id="Vector_10" d="M76.3192 16.8293C76.9913 18.033 78.873 18.8355 80.2171 17.6317C81.6956 16.2943 82.9053 15.358 82.2332 14.0206C81.5612 12.8168 80.4859 13.2181 78.2009 13.4856C76.3192 13.8868 75.5128 15.4918 76.3192 16.8293Z" fill="#DAE2EB"/>
<path id="Vector_11" d="M82.233 11.8808C83.1739 11.7471 84.1148 12.2821 84.3836 13.0846C84.518 13.3521 84.6524 13.7533 84.6524 14.0208C84.9212 15.8933 84.2492 17.4982 83.1739 17.632C81.9642 17.8995 80.7545 16.562 80.6201 14.8233C80.6201 14.2883 80.6201 14.0208 80.6201 13.6196C80.7545 12.6833 81.2922 12.0146 82.233 11.8808C82.3674 11.8808 82.233 11.8808 82.233 11.8808Z" fill="#989FB0"/>
<g id="Group 750">
<path id="Vector_12" d="M55.2896 76.8487C56.2688 76.8487 57.0626 76.0549 57.0626 75.0757C57.0626 74.0965 56.2688 73.3027 55.2896 73.3027C54.3104 73.3027 53.5166 74.0965 53.5166 75.0757C53.5166 76.0549 54.3104 76.8487 55.2896 76.8487Z" fill="#989FB0"/>
<path id="Vector_13" d="M72.9234 76.8487C73.9026 76.8487 74.6964 76.0549 74.6964 75.0757C74.6964 74.0965 73.9026 73.3027 72.9234 73.3027C71.9442 73.3027 71.1504 74.0965 71.1504 75.0757C71.1504 76.0549 71.9442 76.8487 72.9234 76.8487Z" fill="#989FB0"/>
<path id="Vector_14" d="M66.9817 88.4927H61.4231C60.5606 88.4927 59.8418 87.7739 59.8418 86.9114C59.8418 86.0489 60.5606 85.3301 61.4231 85.3301H66.9338C67.7963 85.3301 68.5151 86.0489 68.5151 86.9114C68.563 87.7739 67.8442 88.4927 66.9817 88.4927Z" fill="#989FB0"/>
</g>
</g>
</g>
<defs>
<filter id="filter0_d_396_7563" x="9.1877" y="46.2516" width="109.838" height="78.6949" filterUnits="userSpaceOnUse" color-interpolation-filters="sRGB">
<feFlood flood-opacity="0" result="BackgroundImageFix"/>
<feColorMatrix in="SourceAlpha" type="matrix" values="0 0 0 0 0 0 0 0 0 0 0 0 0 0 0 0 0 0 127 0" result="hardAlpha"/>
<feOffset dy="9.91738"/>
<feGaussianBlur stdDeviation="9.91738"/>
<feColorMatrix type="matrix" values="0 0 0 0 0.397708 0 0 0 0 0.47749 0 0 0 0 0.575 0 0 0 0.27 0"/>
<feBlend mode="normal" in2="BackgroundImageFix" result="effect1_dropShadow_396_7563"/>
<feBlend mode="normal" in="SourceGraphic" in2="effect1_dropShadow_396_7563" result="shape"/>
</filter>
<linearGradient id="paint0_linear_396_7563" x1="64.0839" y1="55.2662" x2="64.0839" y2="95.6152" gradientUnits="userSpaceOnUse">
<stop stop-color="#FDFEFF"/>
<stop offset="0.9964" stop-color="#ECF0F5"/>
</linearGradient>
</defs>
</svg>
