<svg  viewBox="0 0 57 56" fill="none" xmlns="http://www.w3.org/2000/svg">
<g id="box">
<path id="Icon" d="M8.13 16.2404L28.5 28.0238L48.87 16.2404M28.5 51.5204V28.0004M49.5 37.3338V18.6671C49.4992 17.8487 49.2831 17.045 48.8736 16.3365C48.464 15.628 47.8754 15.0396 47.1667 14.6304L30.8333 5.29709C30.1239 4.8875 29.3192 4.67188 28.5 4.67188C27.6808 4.67188 26.8761 4.8875 26.1667 5.29709L9.83333 14.6304C9.12461 15.0396 8.53595 15.628 8.12641 16.3365C7.71687 17.045 7.50084 17.8487 7.5 18.6671V37.3338C7.50084 38.1521 7.71687 38.9559 8.12641 39.6644C8.53595 40.3729 9.12461 40.9612 9.83333 41.3704L26.1667 50.7038C26.8761 51.1133 27.6808 51.329 28.5 51.329C29.3192 51.329 30.1239 51.1133 30.8333 50.7038L47.1667 41.3704C47.8754 40.9612 48.464 40.3729 48.8736 39.6644C49.2831 38.9559 49.4992 38.1521 49.5 37.3338Z" stroke="currentColor" stroke-width="4" stroke-linecap="round" stroke-linejoin="round"/>
</g>
</svg>
