<svg viewBox="0 0 20 20" fill="none" xmlns="http://www.w3.org/2000/svg">
<g id="gift" clip-path="url(#clip0_939_1688)">
<path id="Icon" d="M16.6665 10.0003V18.3337H3.33317V10.0003M9.99984 18.3337V5.83366M9.99984 5.83366H6.24984C5.6973 5.83366 5.1674 5.61417 4.7767 5.22346C4.386 4.83276 4.1665 4.30286 4.1665 3.75033C4.1665 3.19779 4.386 2.66789 4.7767 2.27719C5.1674 1.88649 5.6973 1.66699 6.24984 1.66699C9.1665 1.66699 9.99984 5.83366 9.99984 5.83366ZM9.99984 5.83366H13.7498C14.3024 5.83366 14.8323 5.61417 15.223 5.22346C15.6137 4.83276 15.8332 4.30286 15.8332 3.75033C15.8332 3.19779 15.6137 2.66789 15.223 2.27719C14.8323 1.88649 14.3024 1.66699 13.7498 1.66699C10.8332 1.66699 9.99984 5.83366 9.99984 5.83366ZM1.6665 5.83366H18.3332V10.0003H1.6665V5.83366Z" stroke="currentColor" stroke-width="1.5" stroke-linecap="round" stroke-linejoin="round"/>
</g>
<defs>
<clipPath id="clip0_939_1688">
<rect width="20" height="20" fill="white"/>
</clipPath>
</defs>
</svg>
