<svg xmlns="http://www.w3.org/2000/svg"  viewBox="0 0 65 64" fill="none">
  <path d="M56.5 26.667C56.5 45.3337 32.5 61.3337 32.5 61.3337C32.5 61.3337 8.5 45.3337 8.5 26.667C8.5 20.3018 11.0286 14.1973 15.5294 9.69643C20.0303 5.19556 26.1348 2.66699 32.5 2.66699C38.8652 2.66699 44.9697 5.19556 49.4706 9.69643C53.9714 14.1973 56.5 20.3018 56.5 26.667Z" stroke="currentColor" stroke-width="4" stroke-linecap="round" stroke-linejoin="round"/>
  <path d="M32.5 34.667C36.9183 34.667 40.5 31.0853 40.5 26.667C40.5 22.2487 36.9183 18.667 32.5 18.667C28.0817 18.667 24.5 22.2487 24.5 26.667C24.5 31.0853 28.0817 34.667 32.5 34.667Z" stroke="currentColor" stroke-width="4" stroke-linecap="round" stroke-linejoin="round"/>
</svg>