<svg viewBox="0 0 101 100" fill="none" xmlns="http://www.w3.org/2000/svg">
<path d="M33.8333 41.6676L50.5 58.3343L67.1667 41.6676M17.1667 12.501H83.8333C86.0435 12.501 88.1631 13.3789 89.7259 14.9418C91.2887 16.5046 92.1667 18.6242 92.1667 20.8343V45.8343C92.1667 56.885 87.7768 67.4831 79.9628 75.2971C72.1488 83.1111 61.5507 87.501 50.5 87.501C45.0283 87.501 39.6101 86.4232 34.5549 84.3293C29.4996 82.2353 24.9063 79.1662 21.0372 75.2971C13.2232 67.4831 8.83334 56.885 8.83334 45.8343V20.8343C8.83334 18.6242 9.71132 16.5046 11.2741 14.9418C12.8369 13.3789 14.9565 12.501 17.1667 12.501Z" stroke="currentColor" stroke-width="6" stroke-linecap="round" stroke-linejoin="round"/>
</svg>
