<svg xmlns="http://www.w3.org/2000/svg"  viewBox="0 0 65 64" fill="none">
  <path d="M45.8332 56V50.6667C45.8332 47.8377 44.7094 45.1246 42.709 43.1242C40.7086 41.1238 37.9955 40 35.1665 40H13.8332C11.0042 40 8.29109 41.1238 6.2907 43.1242C4.29031 45.1246 3.1665 47.8377 3.1665 50.6667V56M61.8332 56V50.6667C61.8314 48.3033 61.0448 46.0074 59.5968 44.1395C58.1488 42.2716 56.1215 40.9375 53.8332 40.3467M43.1665 8.34667C45.4609 8.93414 47.4946 10.2685 48.9469 12.1395C50.3991 14.0105 51.1874 16.3115 51.1874 18.68C51.1874 21.0485 50.3991 23.3495 48.9469 25.2205C47.4946 27.0915 45.4609 28.4259 43.1665 29.0133M35.1665 18.6667C35.1665 24.5577 30.3909 29.3333 24.4998 29.3333C18.6088 29.3333 13.8332 24.5577 13.8332 18.6667C13.8332 12.7756 18.6088 8 24.4998 8C30.3909 8 35.1665 12.7756 35.1665 18.6667Z" stroke="currentColor" stroke-width="4" stroke-linecap="round" stroke-linejoin="round"/>
</svg>